<!-- <?xml version="1.0" encoding="UTF-8"?>
<!DOCTYPE svg PUBLIC "-//W3C//DTD SVG 1.1//EN" "http://www.w3.org/Graphics/SVG/1.1/DTD/svg11.dtd"> -->
<svg xmlns="http://www.w3.org/2000/svg" version="1.1" width="700px" height="700px" style="shape-rendering:geometricPrecision; text-rendering:geometricPrecision; image-rendering:optimizeQuality; fill-rule:evenodd; clip-rule:evenodd" xmlns:xlink="http://www.w3.org/1999/xlink">
<g><path style="opacity:0.995" fill="#236a44" d="M 248.5,99.5 C 315.834,99.3333 383.167,99.5 450.5,100C 463.376,119.586 476.376,139.086 489.5,158.5C 396.167,159.833 302.833,159.833 209.5,158.5C 222.759,138.976 235.759,119.31 248.5,99.5 Z"/></g>
<g><path style="opacity:0.996" fill="#236a44" d="M 89.5,179.5 C 262.833,179.5 436.167,179.5 609.5,179.5C 609.833,236.837 609.5,294.171 608.5,351.5C 550.448,330.436 496.948,338.77 448,376.5C 452.865,324.039 431.365,287.205 383.5,266C 333.314,251.614 293.48,265.781 264,308.5C 246,342.5 246,376.5 264,410.5C 293.171,452.985 332.671,467.152 382.5,453C 387.954,450.773 393.287,448.273 398.5,445.5C 398.833,445.833 399.167,446.167 399.5,446.5C 390.831,470.262 388.165,494.595 391.5,519.5C 290.833,519.5 190.167,519.5 89.5,519.5C 89.5,406.167 89.5,292.833 89.5,179.5 Z M 129.5,219.5 C 156.167,219.5 182.833,219.5 209.5,219.5C 209.5,232.833 209.5,246.167 209.5,259.5C 182.833,259.5 156.167,259.5 129.5,259.5C 129.5,246.167 129.5,232.833 129.5,219.5 Z"/></g>
<g><path style="opacity:0.982" fill="#236a44" d="M 338.5,299.5 C 373.116,296.377 396.283,311.044 408,343.5C 413.898,373.519 404.065,396.686 378.5,413C 348.614,426.024 322.78,420.524 301,396.5C 288.415,377.082 286.082,356.416 294,334.5C 303.191,315.457 318.024,303.791 338.5,299.5 Z"/></g>
<g><path style="opacity:0.973" fill="#236a44" d="M 528.5,399.5 C 542.167,399.5 555.833,399.5 569.5,399.5C 569.334,406.841 569.5,414.174 570,421.5C 576.903,424.22 583.737,426.72 590.5,429C 595.167,424.333 599.833,419.667 604.5,415C 605.5,414.333 606.5,414.333 607.5,415C 616.876,424.042 625.876,433.375 634.5,443C 629.5,448.667 624.5,454.333 619.5,460C 622.673,465.853 625.173,472.02 627,478.5C 634.413,479.481 641.913,479.814 649.5,479.5C 649.5,492.833 649.5,506.167 649.5,519.5C 641.913,519.186 634.413,519.519 627,520.5C 625.173,526.98 622.673,533.147 619.5,539C 624.5,544.667 629.5,550.333 634.5,556C 625.876,565.625 616.876,574.958 607.5,584C 606.5,584.667 605.5,584.667 604.5,584C 599.623,578.787 594.456,573.954 589,569.5C 583.217,572.807 577.05,575.14 570.5,576.5C 570.5,584.167 570.5,591.833 570.5,599.5C 556.833,599.5 543.167,599.5 529.5,599.5C 529.814,591.913 529.481,584.413 528.5,577C 522.02,575.173 515.853,572.673 510,569.5C 504.333,574.5 498.667,579.5 493,584.5C 483.375,575.876 474.042,566.876 465,557.5C 464.333,556.5 464.333,555.5 465,554.5C 470.213,549.623 475.046,544.456 479.5,539C 476.193,533.217 473.86,527.05 472.5,520.5C 464.833,520.5 457.167,520.5 449.5,520.5C 449.5,506.833 449.5,493.167 449.5,479.5C 457.087,479.814 464.587,479.481 472,478.5C 473.94,471.953 476.44,465.619 479.5,459.5C 474.302,454.138 469.302,448.638 464.5,443C 473.124,433.375 482.124,424.042 491.5,415C 492.5,414.333 493.5,414.333 494.5,415C 499.377,420.213 504.544,425.046 510,429.5C 515.783,426.193 521.95,423.86 528.5,422.5C 528.5,414.833 528.5,407.167 528.5,399.5 Z M 540.5,460.5 C 564.526,457.753 580.36,467.753 588,490.5C 591.234,514.544 581.401,530.377 558.5,538C 534.456,541.234 518.623,531.401 511,508.5C 507.955,484.414 517.788,468.414 540.5,460.5 Z"/></g>
</svg>
