<?xml version="1.0" encoding="UTF-8"?>
<!DOCTYPE svg PUBLIC "-//W3C//DTD SVG 1.1//EN" "http://www.w3.org/Graphics/SVG/1.1/DTD/svg11.dtd">
<svg xmlns="http://www.w3.org/2000/svg" version="1.1" width="1073px" height="914px" style="shape-rendering:geometricPrecision; text-rendering:geometricPrecision; image-rendering:optimizeQuality; fill-rule:evenodd; clip-rule:evenodd" xmlns:xlink="http://www.w3.org/1999/xlink">
<g><path style="opacity:0.983" fill="#236a44" d="M 513.5,-0.5 C 526.167,-0.5 538.833,-0.5 551.5,-0.5C 672.055,6.53961 774.889,52.5396 860,137.5C 885,119.167 910,100.833 935,82.5C 926.926,139.185 918.426,195.852 909.5,252.5C 852.289,244.542 795.289,235.709 738.5,226C 763.167,208 787.833,190 812.5,172C 714.667,80.2689 599,43.9356 465.5,63C 360.689,82.4542 276.189,134.288 212,218.5C 201.376,234.247 190.876,250.081 180.5,266C 162.926,277.894 147.759,275.394 135,258.5C 130.852,249.98 130.518,241.313 134,232.5C 198.663,121.368 293.163,48.535 417.5,14C 449.19,6.11695 481.19,1.28362 513.5,-0.5 Z"/></g>
<g><path style="opacity:0.956" fill="#236a44" d="M -0.5,486.5 C -0.5,468.5 -0.5,450.5 -0.5,432.5C 0.93142,430.563 2.59809,428.73 4.5,427C 15.3934,424.622 26.2268,422.122 37,419.5C 38.0681,416.129 39.2347,412.796 40.5,409.5C 33.1955,398.363 25.6955,387.363 18,376.5C 15.6642,370.846 16.6642,365.846 21,361.5C 31.9482,350.43 42.7815,339.263 53.5,328C 57.5,326 61.5,326 65.5,328C 75.0327,334.364 84.6994,340.531 94.5,346.5C 102.137,342.432 109.971,338.765 118,335.5C 120.461,324.194 122.795,312.861 125,301.5C 126.122,299.376 127.622,297.543 129.5,296C 147.768,294.373 166.101,294.04 184.5,295C 187.583,295.786 189.749,297.619 191,300.5C 193.584,312.761 196.418,324.928 199.5,337C 206.649,339.491 213.482,342.658 220,346.5C 230.082,339.875 240.249,333.375 250.5,327C 253.5,326.333 256.5,326.333 259.5,327C 271.975,339.142 284.141,351.642 296,364.5C 298.21,369.357 297.877,374.024 295,378.5C 287.464,388.404 280.298,398.57 273.5,409C 274.927,412.444 276.26,415.944 277.5,419.5C 287.421,421.984 297.421,424.151 307.5,426C 309.587,426.792 311.421,427.959 313,429.5C 314.143,439.405 314.643,449.405 314.5,459.5C 314.643,469.595 314.143,479.595 313,489.5C 311.421,491.041 309.587,492.208 307.5,493C 296.372,495.032 285.372,497.532 274.5,500.5C 272.295,505.741 269.962,510.908 267.5,516C 274.373,525.576 280.873,535.409 287,545.5C 288.114,550.041 287.114,554.041 284,557.5C 272.438,569.731 260.271,581.231 247.5,592C 243.548,592.912 239.881,592.245 236.5,590C 227.672,583.752 218.672,577.752 209.5,572C 204.914,572.204 200.747,573.704 197,576.5C 194.333,588.5 191.667,600.5 189,612.5C 187.749,615.381 185.583,617.214 182.5,618C 164.101,618.321 145.768,617.655 127.5,616C 125.622,614.457 124.122,612.624 123,610.5C 120.773,598.805 118.44,587.138 116,575.5C 112.967,573.877 109.8,572.544 106.5,571.5C 95.7023,578.069 85.0356,584.903 74.5,592C 70.2176,592.965 66.2176,592.298 62.5,590C 50.6369,578.471 39.1369,566.638 28,554.5C 26.0832,549.544 26.7499,544.878 30,540.5C 35.6964,532.302 41.1964,523.969 46.5,515.5C 43.8469,510.706 41.6802,505.706 40,500.5C 28.9266,497.751 17.7599,495.251 6.5,493C 2.98529,491.982 0.651961,489.815 -0.5,486.5 Z M 144.5,316.5 C 153.833,316.5 163.167,316.5 172.5,316.5C 174.344,327.552 176.51,338.552 179,349.5C 180.122,351.624 181.622,353.457 183.5,355C 195.126,358.647 206.126,363.647 216.5,370C 221.28,371.03 225.613,370.03 229.5,367C 237.248,361.709 245.081,356.542 253,351.5C 259.865,358.031 266.365,364.864 272.5,372C 265.21,382.079 258.044,392.246 251,402.5C 250.333,405.833 250.333,409.167 251,412.5C 254.2,420.434 257.2,428.434 260,436.5C 261.579,438.041 263.413,439.208 265.5,440C 274.556,441.62 283.556,443.453 292.5,445.5C 293.833,454.833 293.833,464.167 292.5,473.5C 282.525,475.729 272.525,477.895 262.5,480C 260.998,480.583 259.665,481.416 258.5,482.5C 254.674,492.135 250.174,501.469 245,510.5C 243,514.167 243,517.833 245,521.5C 250.333,529.5 255.667,537.5 261,545.5C 261.667,546.5 261.667,547.5 261,548.5C 254.957,554.878 248.624,560.878 242,566.5C 232.51,560.349 223.01,554.182 213.5,548C 210.833,547.333 208.167,547.333 205.5,548C 198.149,551.784 190.482,554.784 182.5,557C 181,558.5 179.5,560 178,561.5C 175.05,573.084 172.55,584.751 170.5,596.5C 161.112,596.585 151.779,595.919 142.5,594.5C 140.335,583.512 138.168,572.512 136,561.5C 134.833,559.667 133.333,558.167 131.5,557C 123.518,554.784 115.851,551.784 108.5,548C 106.167,547.333 103.833,547.333 101.5,548C 91.4094,554.127 81.5761,560.627 72,567.5C 65.6667,561.167 59.3333,554.833 53,548.5C 52.6848,547.092 53.0181,545.759 54,544.5C 59.3333,536.5 64.6667,528.5 70,520.5C 70.6667,517.833 70.6667,515.167 70,512.5C 64.7493,502.5 59.9159,492.333 55.5,482C 44.4313,478.786 33.2646,475.953 22,473.5C 21.5002,464.173 21.3335,454.839 21.5,445.5C 30.8325,443.734 40.1659,441.9 49.5,440C 52.6667,438.833 54.8333,436.667 56,433.5C 58.5348,424.729 61.3681,416.062 64.5,407.5C 63.9639,405.058 63.1306,402.725 62,400.5C 55.0943,391.264 48.5943,381.764 42.5,372C 48.6537,365.178 54.8204,358.345 61,351.5C 70.5808,358.042 80.4141,364.209 90.5,370C 93.1667,370.667 95.8333,370.667 98.5,370C 109.28,362.777 120.947,357.444 133.5,354C 134.667,352.833 135.833,351.667 137,350.5C 139.819,339.24 142.319,327.907 144.5,316.5 Z M 149.5,391.5 C 179.163,390.242 200.997,402.575 215,428.5C 226.499,457.669 220.999,483.169 198.5,505C 169.687,526.087 141.354,525.421 113.5,503C 95.4207,484.521 89.5874,462.688 96,437.5C 105.01,411.766 122.844,396.433 149.5,391.5 Z"/></g>
<g><path style="opacity:0.958" fill="#236a44" d="M 1072.5,438.5 C 1072.5,449.833 1072.5,461.167 1072.5,472.5C 1064.75,525.413 1037.75,565.246 991.5,592C 954.387,610.702 915.72,614.702 875.5,604C 814.972,584.138 778.472,542.972 766,480.5C 758.002,409.332 784.502,355.498 845.5,319C 882.613,300.298 921.28,296.298 961.5,307C 1014.67,324.167 1049.83,359.333 1067,412.5C 1069.18,421.237 1071.01,429.903 1072.5,438.5 Z M 913.5,322.5 C 961.489,322.91 999.656,342.243 1028,380.5C 1059.33,430.5 1059.33,480.5 1028,530.5C 991.795,577.908 944.295,595.741 885.5,584C 836.333,569.5 804.5,537.667 790,488.5C 778.259,429.705 796.092,382.205 843.5,346C 864.817,331.839 888.15,324.006 913.5,322.5 Z"/></g>
<g><path style="opacity:0.993" fill="#236a44" d="M 521.5,343.5 C 577.541,339.784 616.708,363.451 639,414.5C 653.532,466.235 639.699,508.401 597.5,541C 565.14,560.541 531.14,563.875 495.5,551C 459.097,534.249 437.264,506.082 430,466.5C 425.799,410.433 449.299,371.267 500.5,349C 507.586,346.98 514.586,345.147 521.5,343.5 Z"/></g>
<g><path style="opacity:0.958" fill="#236a44" d="M 149.5,369.5 C 189.527,368.583 218.361,385.916 236,421.5C 250.072,460.825 241.906,494.658 211.5,523C 184.102,543.097 154.435,547.097 122.5,535C 86.4166,516.684 69.5833,487.184 72,446.5C 79.7923,402.541 105.626,376.874 149.5,369.5 Z M 149.5,391.5 C 122.844,396.433 105.01,411.766 96,437.5C 89.5874,462.688 95.4207,484.521 113.5,503C 141.354,525.421 169.687,526.087 198.5,505C 220.999,483.169 226.499,457.669 215,428.5C 200.997,402.575 179.163,390.242 149.5,391.5 Z"/></g>
<g><path style="opacity:0.952" fill="#236a44" d="M 990.5,377.5 C 1003.39,376.553 1007.89,382.22 1004,394.5C 973.277,437.557 942.944,480.89 913,524.5C 908.402,529.645 902.902,530.812 896.5,528C 875.292,503.794 854.458,479.294 834,454.5C 830.5,440.667 835.667,435.5 849.5,439C 867.355,459.221 884.855,479.721 902,500.5C 930.056,461.444 957.722,422.11 985,382.5C 986.73,380.598 988.563,378.931 990.5,377.5 Z"/></g>
<g><path style="opacity:0.983" fill="#236a44" d="M 551.5,913.5 C 538.833,913.5 526.167,913.5 513.5,913.5C 389.662,906.413 284.829,858.413 199,769.5C 174.334,787.664 149.334,805.331 124,822.5C 123.5,822.167 123,821.833 122.5,821.5C 132.682,765.59 142.349,709.59 151.5,653.5C 208.329,662.5 264.995,672.333 321.5,683C 297.112,701.055 272.445,718.721 247.5,736C 332.386,819.646 434.719,859.313 554.5,855C 686.445,844.475 789.945,785.309 865,677.5C 874.346,663.483 882.679,648.817 890,633.5C 900.901,619.518 914.401,616.352 930.5,624C 942.71,632.976 946.543,644.809 942,659.5C 878.806,782.053 780.639,861.887 647.5,899C 615.81,906.883 583.81,911.716 551.5,913.5 Z"/></g>
</svg>
