<?xml version="1.0" encoding="UTF-8"?>
<!DOCTYPE svg PUBLIC "-//W3C//DTD SVG 1.1//EN" "http://www.w3.org/Graphics/SVG/1.1/DTD/svg11.dtd">
<svg xmlns="http://www.w3.org/2000/svg" version="1.1" width="512px" height="512px" style="shape-rendering:geometricPrecision; text-rendering:geometricPrecision; image-rendering:optimizeQuality; fill-rule:evenodd; clip-rule:evenodd" xmlns:xlink="http://www.w3.org/1999/xlink">
<g><path style="opacity:0.933" fill="#fff" d="M 249.5,-0.5 C 252.167,-0.5 254.833,-0.5 257.5,-0.5C 291.688,28.5309 305.522,65.5309 299,110.5C 306.266,114.358 310.599,120.358 312,128.5C 312.931,146.544 312.598,164.544 311,182.5C 307.832,186.533 303.999,187.367 299.5,185C 294.047,178.592 288.714,172.092 283.5,165.5C 262.824,180.128 242.157,180.128 221.5,165.5C 216.286,172.092 210.953,178.592 205.5,185C 201.286,187.269 197.453,186.769 194,183.5C 192.361,165.924 192.028,148.258 193,130.5C 193.662,121.837 197.829,115.504 205.5,111.5C 206.333,96.5 207.167,81.5 208,66.5C 210.154,53.1966 214.82,40.8633 222,29.5C 227.441,25.0742 232.108,25.7409 236,31.5C 236.667,33.5 236.667,35.5 236,37.5C 231.395,45.3749 227.895,53.7083 225.5,62.5C 243.833,62.5 262.167,62.5 280.5,62.5C 277.234,48.967 271.067,36.967 262,26.5C 256.613,21.1126 251.279,15.7792 246,10.5C 244.662,5.95968 245.829,2.29302 249.5,-0.5 Z M 222.5,78.5 C 242.5,78.5 262.5,78.5 282.5,78.5C 282.832,88.8548 282.499,99.1881 281.5,109.5C 271.113,113.392 265.447,120.892 264.5,132C 266.553,138.94 269.553,145.44 273.5,151.5C 263.645,160.769 252.312,162.936 239.5,158C 236.244,156.541 233.577,154.374 231.5,151.5C 236.123,145.585 239.123,138.918 240.5,131.5C 239.283,120.628 233.616,113.295 223.5,109.5C 222.501,99.1881 222.168,88.8548 222.5,78.5 Z M 214.5,124.5 C 219.327,124.411 222.661,126.578 224.5,131C 219.955,139.262 214.788,147.095 209,154.5C 208.09,145.756 208.424,137.089 210,128.5C 211.397,126.93 212.897,125.596 214.5,124.5 Z M 286.5,124.5 C 291.423,123.871 294.589,125.871 296,130.5C 296.667,138.5 296.667,146.5 296,154.5C 290.941,147.772 286.274,140.772 282,133.5C 281.053,129.279 282.553,126.279 286.5,124.5 Z"/></g>
<g><path style="opacity:0.92" fill="#fff" d="M 332.5,-0.5 C 335.167,-0.5 337.833,-0.5 340.5,-0.5C 344.111,3.76444 345.445,8.76444 344.5,14.5C 348.182,14.3347 351.848,14.5014 355.5,15C 360.343,19.3796 360.677,24.0462 356.5,29C 352.637,30.3537 348.637,30.8537 344.5,30.5C 344.854,34.6372 344.354,38.6372 343,42.5C 338.667,46.5 334.333,46.5 330,42.5C 328.646,38.6372 328.146,34.6372 328.5,30.5C 324.363,30.8537 320.363,30.3537 316.5,29C 312.323,24.0462 312.657,19.3796 317.5,15C 321.152,14.5014 324.818,14.3347 328.5,14.5C 327.456,8.68471 328.789,3.68471 332.5,-0.5 Z"/></g>
<g><path style="opacity:0.916" fill="#fff" d="M 137.5,36.5 C 141.257,36.0708 144.757,36.7375 148,38.5C 149.367,42.6996 149.867,47.0329 149.5,51.5C 153.182,51.3347 156.848,51.5014 160.5,52C 163.366,53.3929 164.699,55.7262 164.5,59C 164.592,61.8139 163.592,64.1473 161.5,66C 157.605,67.2662 153.605,67.7662 149.5,67.5C 149.854,71.6372 149.354,75.6372 148,79.5C 143.667,83.5 139.333,83.5 135,79.5C 133.646,75.6372 133.146,71.6372 133.5,67.5C 129.395,67.7662 125.395,67.2662 121.5,66C 117.323,61.0462 117.657,56.3796 122.5,52C 126.152,51.5014 129.818,51.3347 133.5,51.5C 133.335,48.1501 133.502,44.8168 134,41.5C 134.697,39.4156 135.864,37.7489 137.5,36.5 Z"/></g>
<g><path style="opacity:0.923" fill="#fff" d="M 384.5,55.5 C 394.814,55.0459 398.814,60.0459 396.5,70.5C 400.182,70.3347 403.848,70.5014 407.5,71C 411.918,74.7564 412.585,79.0897 409.5,84C 405.414,86.0532 401.08,86.8866 396.5,86.5C 396.766,90.6049 396.266,94.6049 395,98.5C 390.618,102.459 386.285,102.459 382,98.5C 380.646,94.6372 380.146,90.6372 380.5,86.5C 376.395,86.7662 372.395,86.2662 368.5,85C 364.966,80.9244 364.633,76.591 367.5,72C 371.7,70.6326 376.033,70.1326 380.5,70.5C 380.335,66.8183 380.501,63.1516 381,59.5C 381.69,57.6498 382.856,56.3164 384.5,55.5 Z"/></g>
<g><path style="opacity:0.935" fill="#fff" d="M 272.5,511.5 C 230.5,511.5 188.5,511.5 146.5,511.5C 145.496,510.317 144.662,508.984 144,507.5C 143.333,481.5 143.333,455.5 144,429.5C 169.932,416.904 190.098,398.07 204.5,373C 180.198,363.235 170.365,345.402 175,319.5C 184.379,295.225 201.879,285.725 227.5,291C 233.957,293.059 239.624,296.393 244.5,301C 245.5,301.667 246.5,301.667 247.5,301C 260.076,287.677 267.076,271.844 268.5,253.5C 212.833,253.5 157.167,253.5 101.5,253.5C 97.3279,279.719 96.4946,306.053 99,332.5C 102.352,358.855 112.019,382.521 128,403.5C 128.747,413.048 124.58,416.215 115.5,413C 95.5024,387.359 84.3358,358.192 82,325.5C 80.175,298.929 81.8416,272.596 87,246.5C 87.2293,243.542 88.396,241.042 90.5,239C 94.1418,238.086 97.8085,237.252 101.5,236.5C 97.6282,225.551 93.9616,214.551 90.5,203.5C 95.7633,176.681 101.597,150.014 108,123.5C 111.256,121.571 114.756,121.071 118.5,122C 138.612,138.477 158.445,155.311 178,172.5C 185.703,193.941 193.203,215.441 200.5,237C 210.494,237.5 220.494,237.666 230.5,237.5C 230.333,222.496 230.5,207.496 231,192.5C 231.644,187.856 234.31,185.19 239,184.5C 241.887,184.903 244.221,186.236 246,188.5C 246.5,204.83 246.667,221.163 246.5,237.5C 250.5,237.5 254.5,237.5 258.5,237.5C 258.333,222.163 258.5,206.83 259,191.5C 262.522,183.538 267.522,182.538 274,188.5C 274.5,204.83 274.667,221.163 274.5,237.5C 281.863,237.831 289.197,237.497 296.5,236.5C 313.667,201.5 330.833,166.5 348,131.5C 355.209,121.204 365.042,117.37 377.5,120C 391.32,126.41 404.987,133.077 418.5,140C 427.428,147.114 430.594,156.281 428,167.5C 417.234,190.865 406.067,214.032 394.5,237C 397.548,237.606 400.048,239.106 402,241.5C 402.739,274.044 411.739,304.044 429,331.5C 433.808,349.904 426.975,360.904 408.5,364.5C 402.973,417.715 374.64,452.215 323.5,468C 307.983,471.001 292.316,472.168 276.5,471.5C 276.667,483.505 276.5,495.505 276,507.5C 275.31,509.35 274.144,510.684 272.5,511.5 Z M 214.5,124.5 C 212.897,125.596 211.397,126.93 210,128.5C 208.424,137.089 208.09,145.756 209,154.5C 214.788,147.095 219.955,139.262 224.5,131C 222.661,126.578 219.327,124.411 214.5,124.5 Z M 286.5,124.5 C 282.553,126.279 281.053,129.279 282,133.5C 286.274,140.772 290.941,147.772 296,154.5C 296.667,146.5 296.667,138.5 296,130.5C 294.589,125.871 291.423,123.871 286.5,124.5 Z M 366.5,135.5 C 370.747,135.178 374.747,136.011 378.5,138C 388.5,143 398.5,148 408.5,153C 412.13,156.05 413.297,159.883 412,164.5C 410,168.5 408,172.5 406,176.5C 401.124,173.478 395.958,171.145 390.5,169.5C 383.727,170.697 381.227,174.697 383,181.5C 388.092,185.298 393.592,188.465 399.5,191C 395.539,198.422 391.706,205.922 388,213.5C 381.245,209.872 374.412,206.372 367.5,203C 358.836,202 355.336,205.834 357,214.5C 364.765,219.635 372.932,224.135 381.5,228C 379.833,231 378.167,234 376.5,237C 355.833,237.667 335.167,237.667 314.5,237C 330.471,204.097 346.638,171.264 363,138.5C 364.145,137.364 365.312,136.364 366.5,135.5 Z M 128.5,153.5 C 129.552,153.351 130.552,153.517 131.5,154C 140.673,161.676 149.673,169.509 158.5,177.5C 151.665,184.835 144.498,191.835 137,198.5C 127.586,197.359 118.086,196.692 108.5,196.5C 110.805,184.14 113.305,171.807 116,159.5C 119.954,157.018 124.12,155.018 128.5,153.5 Z M 166.5,192.5 C 167.497,192.47 168.164,192.97 168.5,194C 173.505,208.35 178.505,222.683 183.5,237C 175.173,237.5 166.84,237.666 158.5,237.5C 155.908,228.056 152.908,218.723 149.5,209.5C 155.006,203.599 160.673,197.932 166.5,192.5 Z M 110.5,212.5 C 118.49,213.023 126.49,213.356 134.5,213.5C 136.833,221.5 139.167,229.5 141.5,237.5C 133.804,237.831 126.138,237.497 118.5,236.5C 115.628,228.55 112.961,220.55 110.5,212.5 Z M 284.5,253.5 C 318.833,253.5 353.167,253.5 387.5,253.5C 389.185,284.055 398.018,312.388 414,338.5C 414.959,342.421 413.792,345.588 410.5,348C 406.5,348.333 402.5,348.667 398.5,349C 396.714,349.785 395.214,350.951 394,352.5C 392.839,396.958 372.339,428.792 332.5,448C 323.183,451.746 313.516,454.079 303.5,455C 290.072,455.036 276.739,455.703 263.5,457C 262.107,458.171 261.273,459.671 261,461.5C 260.5,473.162 260.333,484.829 260.5,496.5C 226.833,496.5 193.167,496.5 159.5,496.5C 159.167,477.155 159.5,457.822 160.5,438.5C 191.11,422.228 212.443,397.895 224.5,365.5C 224.06,362.786 222.726,360.62 220.5,359C 205.28,358.821 195.114,351.654 190,337.5C 188.349,318.658 196.849,307.992 215.5,305.5C 220.189,305.341 224.522,306.507 228.5,309C 233.486,312.655 238.153,316.655 242.5,321C 245.783,321.743 248.783,321.076 251.5,319C 272.169,302.162 283.169,280.329 284.5,253.5 Z"/></g>
<g><path style="opacity:0.911" fill="#fff" d="M 331.5,275.5 C 350.361,275.198 361.028,284.365 363.5,303C 361.823,311.337 357.156,313.504 349.5,309.5C 348.187,304.659 346.354,299.992 344,295.5C 337.108,289.964 330.774,290.63 325,297.5C 324.012,300.424 323.346,303.424 323,306.5C 318.486,312.747 313.486,313.08 308,307.5C 306.83,290.176 314.663,279.509 331.5,275.5 Z"/></g>
<g><path style="opacity:0.86" fill="#fff" d="M 209.5,323.5 C 213.257,323.071 216.757,323.737 220,325.5C 223.448,332.932 221.282,337.599 213.5,339.5C 206.861,337.585 204.695,333.252 207,326.5C 208.045,325.627 208.878,324.627 209.5,323.5 Z"/></g>
</svg>
