<?xml version="1.0" standalone="no"?>
<!DOCTYPE svg PUBLIC "-//W3C//DTD SVG 20010904//EN"
 "http://www.w3.org/TR/2001/REC-SVG-20010904/DTD/svg10.dtd">
<svg version="1.0" xmlns="http://www.w3.org/2000/svg"
 width="512.000000pt" height="512.000000pt" viewBox="0 0 512.000000 512.000000"
 preserveAspectRatio="xMidYMid meet">

<g transform="translate(0.000000,512.000000) scale(0.100000,-0.100000)"
fill="#fff" stroke="none">
<path d="M946 4789 c-62 -15 -153 -68 -197 -116 -22 -24 -55 -74 -72 -111
l-32 -67 0 -1936 0 -1935 37 -76 c45 -91 103 -147 196 -191 l67 -32 1296 0
1295 0 77 38 c76 37 107 70 107 112 0 25 -55 75 -82 75 -13 0 -39 -11 -58 -23
-19 -13 -50 -29 -69 -35 -50 -17 -2487 -17 -2545 0 -55 16 -138 99 -154 154
-18 60 -18 3768 0 3828 17 58 100 138 158 154 34 10 235 12 847 10 792 -3 802
-3 829 -24 69 -51 68 -48 74 -353 l5 -277 37 -76 c45 -91 103 -147 196 -191
l67 -32 277 -5 c304 -6 301 -5 352 -74 20 -26 21 -43 26 -438 l5 -410 24 -19
c33 -27 77 -24 107 6 l25 25 -3 417 c-3 418 -3 418 -27 468 -35 73 -1043 1081
-1116 1116 l-50 24 -830 2 c-479 1 -846 -3 -869 -8z m2312 -947 c-203 -4 -235
4 -303 72 -68 68 -75 97 -75 302 l0 169 270 -270 270 -270 -162 -3z"/>
<path d="M985 3575 c-16 -15 -25 -36 -25 -55 0 -19 9 -40 25 -55 l24 -25 631
0 631 0 24 25 c16 15 25 36 25 55 0 19 -9 40 -25 55 l-24 25 -631 0 -631 0
-24 -25z"/>
<path d="M985 2935 c-16 -15 -25 -36 -25 -55 0 -19 9 -40 25 -55 l24 -25 710
0 710 0 27 23 c20 17 27 33 27 57 0 24 -7 40 -27 57 l-27 23 -710 0 -710 0
-24 -25z"/>
<path d="M2840 2784 c-391 -73 -705 -364 -806 -749 -37 -137 -40 -356 -7 -485
110 -434 458 -735 903 -782 176 -19 394 24 545 106 l60 32 280 -276 c245 -242
286 -279 329 -294 98 -32 192 -11 261 59 74 74 95 196 50 286 -10 19 -139 156
-288 306 l-270 272 41 88 c125 269 132 537 22 821 -85 220 -290 434 -517 539
-174 80 -416 111 -603 77z m415 -179 c295 -87 518 -317 596 -615 44 -165 28
-373 -40 -539 -71 -171 -208 -325 -373 -419 -79 -46 -221 -90 -331 -103 -248
-31 -509 62 -693 245 -105 106 -175 224 -221 373 -23 78 -26 104 -26 233 0
129 3 155 26 233 101 332 352 555 694 617 89 16 269 4 368 -25z m808 -1743
c231 -232 257 -261 257 -291 0 -45 -46 -91 -91 -91 -30 0 -59 26 -294 260
l-260 260 60 60 c33 33 62 60 65 60 3 0 121 -116 263 -258z"/>
<path d="M2959 2321 c-75 -76 4 -201 102 -161 40 17 59 47 59 93 0 53 -43 97
-95 97 -27 0 -44 -8 -66 -29z"/>
<path d="M2850 1985 c-50 -53 -10 -135 66 -135 l34 0 -2 -237 -3 -238 -36 -3
c-76 -6 -109 -92 -54 -139 24 -22 35 -23 169 -23 130 0 146 2 170 21 56 44 21
139 -52 139 l-31 0 -3 294 -3 294 -24 26 c-23 24 -31 26 -116 26 -84 0 -93 -2
-115 -25z"/>
<path d="M985 2295 c-16 -15 -25 -36 -25 -55 0 -19 9 -40 25 -55 l24 -25 430
0 430 0 27 23 c37 33 37 81 0 114 l-27 23 -430 0 -430 0 -24 -25z"/>
<path d="M985 1655 c-16 -15 -25 -36 -25 -55 0 -19 9 -40 25 -55 l24 -25 396
0 396 0 24 25 c16 15 25 36 25 55 0 19 -9 40 -25 55 l-24 25 -396 0 -396 0
-24 -25z"/>
<path d="M985 1015 c-16 -15 -25 -36 -25 -55 0 -19 9 -40 25 -55 l24 -25 540
0 540 0 27 23 c20 17 27 33 27 57 0 24 -7 40 -27 57 l-27 23 -540 0 -540 0
-24 -25z"/>
</g>
</svg>
