<?xml version="1.0" encoding="iso-8859-1"?>
<!-- Uploaded to: SVG Repo, www.svgrepo.com, Generator: SVG Repo Mixer Tools -->
<svg fill="#236a44" height="800px" width="800px" version="1.1" id="Layer_1" xmlns="http://www.w3.org/2000/svg" xmlns:xlink="http://www.w3.org/1999/xlink" 
	 viewBox="0 0 512 512" xml:space="preserve">
<g>
	<g>
		<path d="M397.796,390.792h-51.969c-5.77,0-10.449,4.678-10.449,10.449c0,5.771,4.679,10.449,10.449,10.449h51.969
			c5.77,0,10.449-4.678,10.449-10.449C408.245,395.47,403.567,390.792,397.796,390.792z"/>
	</g>
</g>
<g>
	<g>
		<path d="M310.3,390.792H113.16c-5.77,0-10.449,4.678-10.449,10.449c0,5.771,4.678,10.449,10.449,10.449H310.3
			c5.77,0,10.449-4.678,10.449-10.449C320.749,395.47,316.07,390.792,310.3,390.792z"/>
	</g>
</g>
<g>
	<g>
		<path d="M397.796,440.947h-15.548c-5.77,0-10.449,4.678-10.449,10.449c0,5.771,4.679,10.449,10.449,10.449h15.548
			c5.77,0,10.449-4.678,10.449-10.449C408.245,445.625,403.567,440.947,397.796,440.947z"/>
	</g>
</g>
<g>
	<g>
		<path d="M197.544,440.947h-24.429c-5.771,0-10.449,4.678-10.449,10.449c0,5.771,4.678,10.449,10.449,10.449h24.429
			c5.77,0,10.449-4.678,10.449-10.449C207.993,445.625,203.314,440.947,197.544,440.947z"/>
	</g>
</g>
<g>
	<g>
		<path d="M137.589,440.947h-23.384c-5.77,0-10.449,4.678-10.449,10.449c0,5.771,4.679,10.449,10.449,10.449h23.384
			c5.77,0,10.449-4.678,10.449-10.449C148.038,445.625,143.359,440.947,137.589,440.947z"/>
	</g>
</g>
<g>
	<g>
		<path d="M346.721,440.947h-113.65c-5.77,0-10.449,4.678-10.449,10.449c0,5.771,4.679,10.449,10.449,10.449h113.652
			c5.77,0,10.449-4.678,10.449-10.449C357.171,445.625,352.492,440.947,346.721,440.947z"/>
	</g>
</g>
<g>
	<g>
		<path d="M444.082,411.69h32.392c19.59,0,35.527-15.937,35.527-35.527s-15.937-35.527-35.527-35.527h-12.541v-40.859
			c10.179,8.565,23.302,13.739,37.616,13.739c5.771,0,10.449-4.679,10.449-10.449c0-5.77-4.678-10.449-10.449-10.449
			c-20.741,0-37.616-16.874-37.616-37.616v-3.29c10.179,8.565,23.302,13.739,37.616,13.739c5.771,0,10.449-4.678,10.449-10.449
			c0-5.77-4.678-10.449-10.449-10.449c-20.741,0-37.616-16.874-37.616-37.616v-3.29c10.179,8.565,23.302,13.739,37.616,13.739
			c5.771,0,10.449-4.678,10.449-10.449c0-5.77-4.678-10.449-10.449-10.449c-20.741,0-37.616-16.874-37.616-37.616
			c0-5.77-4.678-10.449-10.449-10.449c-5.77,0-10.449,4.679-10.449,10.449c0,20.742-16.874,37.616-37.616,37.616
			c-5.77,0-10.449,4.679-10.449,10.449c0,5.771,4.679,10.449,10.449,10.449c14.314,0,27.437-5.174,37.616-13.739v3.29
			c0,20.742-16.874,37.616-37.616,37.616c-5.77,0-10.449,4.679-10.449,10.449c0,5.771,4.679,10.449,10.449,10.449
			c14.314,0,27.437-5.174,37.616-13.739v3.29c0,20.742-16.874,37.616-37.616,37.616c-0.245,0-0.484,0.02-0.723,0.037
			L264.287,115.757c-1.979-2.492-4.984-3.947-8.166-3.953c-0.006,0-0.013,0-0.019,0c-3.174,0-6.178,1.443-8.162,3.925
			l-141.428,176.89c-20.711-0.037-37.549-16.896-37.549-37.615v-3.29c10.179,8.565,23.302,13.739,37.616,13.739
			c5.77,0,10.449-4.678,10.449-10.449c0-5.77-4.679-10.449-10.449-10.449c-20.742,0-37.616-16.874-37.616-37.616v-3.29
			c10.179,8.565,23.302,13.739,37.616,13.739c5.77,0,10.449-4.678,10.449-10.449c0-5.77-4.679-10.449-10.449-10.449
			c-20.742,0-37.616-16.874-37.616-37.616c0-5.77-4.679-10.449-10.449-10.449c-5.77,0-10.449,4.679-10.449,10.449
			c0,20.742-16.874,37.616-37.616,37.616C4.678,196.489,0,201.168,0,206.938c0,5.771,4.678,10.449,10.449,10.449
			c14.314,0,27.437-5.174,37.616-13.739v3.29c0,20.742-16.874,37.616-37.616,37.616C4.678,244.554,0,249.233,0,255.003
			c0,5.771,4.678,10.449,10.449,10.449c14.314,0,27.437-5.174,37.616-13.739v3.29c0,20.742-16.874,37.616-37.616,37.616
			C4.678,292.62,0,297.299,0,303.068c0,5.77,4.678,10.449,10.449,10.449c14.314,0,27.437-5.174,37.616-13.739v40.859H35.527
			C15.937,340.637,0,356.574,0,376.163s15.937,35.527,35.527,35.527h25.126c8.067,0,14.629,6.562,14.629,14.629
			s-6.562,14.629-14.629,14.629h-1.093c-19.59,0-35.527,15.937-35.527,35.526S39.969,512,59.559,512h392.882
			c19.59,0,35.527-15.937,35.527-35.527s-15.937-35.526-35.527-35.526h-8.359c-8.067,0-14.629-6.562-14.629-14.629
			S436.015,411.69,444.082,411.69z M443.035,299.778v40.859h-0.257l-22.953-28.919C428.493,309.516,436.39,305.369,443.035,299.778z
			 M266.55,152.224l149.547,188.413H283.769l-10.054-34.488l30.438-39.606c2.705-3.519,2.891-8.363,0.464-12.08l-38.067-58.307
			V152.224z M245.653,152.055v47.211c0,2.028,0.59,4.013,1.7,5.712l35.716,54.706l-29.153,37.934
			c-2.03,2.641-2.679,6.093-1.747,9.292l9.832,33.727H94.877L245.653,152.055z M68.963,299.777
			c6.448,5.426,14.078,9.486,22.443,11.733l-22.443,28.071V299.777z M444.082,461.845h8.359c8.067,0,14.629,6.562,14.629,14.629
			c0,8.067-6.562,14.629-14.629,14.629H59.559c-8.067,0-14.629-6.562-14.629-14.629c0-8.067,6.562-14.629,14.629-14.629h1.093
			c19.59,0,35.527-15.937,35.527-35.527s-15.937-35.527-35.527-35.527H35.527c-8.067,0-14.629-6.562-14.629-14.629
			s6.562-14.629,14.629-14.629h440.947c8.067,0,14.629,6.562,14.629,14.629s-6.562,14.629-14.629,14.629h-32.392
			c-19.59,0-35.526,15.937-35.526,35.527S424.492,461.845,444.082,461.845z"/>
	</g>
</g>
<g>
	<g>
		<path d="M122.253,0C89.988,0,63.739,26.249,63.739,58.514c0,32.265,26.249,58.514,58.514,58.514
			c32.265,0,58.514-26.249,58.514-58.514C180.767,26.249,154.518,0,122.253,0z M122.253,96.131
			c-20.742,0-37.616-16.874-37.616-37.616c0-20.742,16.874-37.616,37.616-37.616c20.742,0,37.616,16.874,37.616,37.616
			C159.869,79.257,142.995,96.131,122.253,96.131z"/>
	</g>
</g>
</svg>