<?xml version="1.0" standalone="no"?>
<!DOCTYPE svg PUBLIC "-//W3C//DTD SVG 20010904//EN"
 "http://www.w3.org/TR/2001/REC-SVG-20010904/DTD/svg10.dtd">
<svg version="1.0" xmlns="http://www.w3.org/2000/svg"
 width="512.000000pt" height="512.000000pt" viewBox="0 0 512.000000 512.000000"
 preserveAspectRatio="xMidYMid meet">

<g transform="translate(0.000000,512.000000) scale(0.100000,-0.100000)"
fill="#fff" stroke="none">
<path d="M1950 4804 c-587 -55 -1064 -259 -1410 -604 -228 -227 -356 -472
-405 -773 -12 -72 -6 -291 10 -372 21 -113 60 -230 110 -331 l43 -88 -63 -90
c-228 -331 -292 -713 -180 -1076 31 -99 77 -154 140 -166 86 -16 160 36 194
138 68 202 236 416 449 572 l54 39 106 -55 c59 -30 137 -68 174 -83 62 -25 69
-32 116 -104 188 -288 531 -540 927 -681 61 -21 109 -42 108 -47 -44 -220 -18
-523 58 -680 39 -80 132 -113 212 -74 54 26 64 41 106 151 59 156 178 325 312
440 l66 57 124 7 c441 26 820 134 1140 326 155 94 241 161 369 290 207 206
330 427 387 694 24 111 24 351 0 462 -80 374 -317 701 -683 941 -96 63 -249
144 -348 184 -50 20 -64 32 -99 84 -285 424 -803 723 -1420 816 -128 20 -486
33 -597 23z m575 -343 c242 -41 392 -89 600 -192 366 -181 617 -453 707 -764
31 -108 33 -352 4 -460 -109 -409 -519 -765 -1055 -916 -599 -168 -1274 -83
-1759 224 -82 51 -139 59 -203 27 -118 -61 -322 -220 -422 -330 -31 -35 -57
-56 -57 -48 0 77 111 308 200 418 121 149 115 138 115 200 0 49 -5 64 -42 120
-63 97 -120 227 -143 324 -25 106 -28 278 -6 383 90 427 497 794 1063 958 98
28 280 63 398 75 134 14 464 4 600 -19z m1785 -1079 c103 -72 277 -255 339
-356 163 -263 193 -563 84 -835 -150 -375 -557 -686 -1067 -816 -172 -43 -317
-63 -517 -71 -108 -5 -173 -12 -191 -21 -42 -21 -196 -152 -260 -222 -32 -34
-58 -56 -58 -48 0 7 11 51 25 98 32 106 27 147 -24 201 -32 34 -49 42 -148 68
-262 70 -544 208 -693 341 l-35 31 40 -6 c474 -68 1023 15 1440 218 510 249
842 645 921 1101 12 65 15 134 12 247 l-4 157 36 -20 c19 -12 64 -42 100 -67z"/>
<path d="M1185 3511 c-107 -26 -159 -164 -104 -277 55 -115 222 -116 279 -3
44 85 17 215 -52 257 -41 24 -84 32 -123 23z"/>
<path d="M2107 3506 c-80 -29 -107 -75 -107 -179 0 -60 4 -80 23 -107 83 -125
267 -81 291 69 23 145 -87 260 -207 217z"/>
<path d="M3037 3506 c-75 -28 -107 -80 -107 -176 0 -98 39 -157 122 -180 68
-20 153 25 184 97 18 41 18 124 0 166 -15 38 -79 97 -104 97 -9 0 -26 2 -37 5
-11 3 -37 -2 -58 -9z"/>
</g>
</svg>
