<?xml version="1.0" standalone="no"?>
<!DOCTYPE svg PUBLIC "-//W3C//DTD SVG 20010904//EN"
 "http://www.w3.org/TR/2001/REC-SVG-20010904/DTD/svg10.dtd">
<svg version="1.0" xmlns="http://www.w3.org/2000/svg"
 width="512.000000pt" height="512.000000pt" viewBox="0 0 512.000000 512.000000"
 preserveAspectRatio="xMidYMid meet">

<g transform="translate(0.000000,512.000000) scale(0.100000,-0.100000)"
fill="#fff" stroke="none">
<path d="M1100 4945 c-247 -40 -500 -180 -659 -365 -77 -89 -110 -138 -160
-237 -90 -180 -124 -346 -119 -576 3 -158 8 -174 72 -221 39 -29 133 -29 172
0 65 48 68 60 75 252 9 231 37 335 129 475 112 173 270 286 480 344 34 9 124
18 232 22 192 7 204 10 252 75 29 39 29 133 0 172 -48 65 -61 69 -232 71 -95
1 -191 -4 -242 -12z"/>
<path d="M3615 4946 c-94 -41 -124 -168 -59 -246 43 -50 58 -54 244 -61 229
-9 334 -37 473 -129 173 -112 286 -270 344 -480 9 -34 18 -124 22 -232 7 -192
10 -204 75 -252 39 -29 133 -29 172 0 63 46 69 64 72 211 4 150 -8 270 -39
383 -24 86 -102 256 -150 326 -177 257 -456 433 -759 479 -121 19 -354 19
-395 1z"/>
<path d="M2425 3834 c-16 -2 -72 -14 -124 -25 -511 -114 -890 -563 -937 -1111
l-7 -78 -82 -40 c-344 -166 -420 -626 -148 -895 169 -167 414 -210 630 -110
l77 35 56 -39 c79 -56 220 -125 315 -154 147 -46 192 -52 365 -51 143 1 178 4
261 26 164 44 288 101 415 190 l40 29 77 -36 c217 -100 465 -56 632 112 270
273 194 727 -151 894 -78 38 -84 43 -84 71 0 17 -7 78 -16 137 -45 310 -212
601 -452 793 -207 164 -432 246 -697 253 -77 2 -153 1 -170 -1z m-172 -1243
c299 -225 728 -332 1086 -270 30 5 56 7 58 5 7 -7 -48 -137 -85 -201 -183
-315 -537 -490 -881 -434 -216 35 -422 158 -554 332 -55 70 -137 221 -137 249
0 7 33 30 73 50 109 55 204 126 292 221 44 47 84 86 88 86 4 1 31 -17 60 -38z"/>
<path d="M255 1586 c-37 -17 -70 -52 -84 -89 -16 -41 -13 -276 4 -387 46 -303
222 -582 479 -759 70 -48 240 -126 326 -150 113 -31 233 -43 383 -39 147 3
165 9 211 72 29 39 29 133 0 172 -48 65 -60 68 -252 75 -229 9 -322 33 -467
124 -174 108 -293 272 -352 485 -9 34 -18 124 -22 232 -7 191 -10 204 -73 251
-34 25 -113 32 -153 13z"/>
<path d="M4735 1586 c-41 -18 -83 -69 -89 -109 -3 -18 -7 -99 -10 -182 -5
-201 -36 -312 -126 -448 -112 -173 -270 -286 -480 -344 -34 -9 -124 -18 -232
-22 -192 -7 -204 -10 -252 -75 -29 -39 -29 -133 0 -172 46 -63 64 -69 211 -72
224 -6 381 24 549 102 247 117 416 281 534 521 94 191 124 338 118 578 -3 147
-9 165 -70 210 -33 25 -113 32 -153 13z"/>
</g>
</svg>
