<?xml version="1.0" encoding="UTF-8"?>
<!DOCTYPE svg PUBLIC "-//W3C//DTD SVG 1.1//EN" "http://www.w3.org/Graphics/SVG/1.1/DTD/svg11.dtd">
<svg xmlns="http://www.w3.org/2000/svg" version="1.1" width="512px" height="512px" style="shape-rendering:geometricPrecision; text-rendering:geometricPrecision; image-rendering:optimizeQuality; fill-rule:evenodd; clip-rule:evenodd" xmlns:xlink="http://www.w3.org/1999/xlink">
<g><path style="opacity:0.933" fill="#fff" d="M 366.5,-0.5 C 372.5,-0.5 378.5,-0.5 384.5,-0.5C 410.031,10.2293 417.531,28.5626 407,54.5C 397.179,68.779 383.679,74.279 366.5,71C 345.255,63.6897 336.421,48.8564 340,26.5C 344.351,12.9836 353.184,3.98363 366.5,-0.5 Z M 369.5,16.5 C 390.415,15.9045 397.915,25.5712 392,45.5C 384.175,55.2882 374.675,57.1216 363.5,51C 355.602,42.7455 354.435,33.5788 360,23.5C 362.79,20.535 365.957,18.2016 369.5,16.5 Z"/></g>
<g><path style="opacity:0.925" fill="#fff" d="M 511.5,180.5 C 511.5,183.167 511.5,185.833 511.5,188.5C 507.747,193.795 503.08,194.628 497.5,191C 473.957,166.956 449.957,143.456 425.5,120.5C 399.711,148.125 373.711,175.625 347.5,203C 336.503,204.536 333.003,200.036 337,189.5C 347.833,178 358.667,166.5 369.5,155C 333.99,130.818 298.49,106.652 263,82.5C 226.23,108.933 189.73,135.766 153.5,163C 163.333,173.5 173.167,184 183,194.5C 185.625,204.786 181.792,208.953 171.5,207C 142.667,176.833 113.833,146.667 85,116.5C 60.4691,141.363 36.3024,166.53 12.5,192C 7.52717,194.394 3.19384,193.56 -0.5,189.5C -0.5,186.5 -0.5,183.5 -0.5,180.5C 25.9043,151.926 52.9043,123.759 80.5,96C 83.9643,95.1834 87.2976,95.5167 90.5,97C 106.967,115.135 123.801,132.969 141,150.5C 179.167,122.333 217.333,94.1667 255.5,66C 259.142,63.5919 263.142,62.9252 267.5,64C 305.595,89.7966 343.428,115.963 381,142.5C 394.201,128.967 407.034,115.134 419.5,101C 422.702,99.5167 426.036,99.1834 429.5,100C 457.06,126.728 484.394,153.561 511.5,180.5 Z"/></g>
<g><path style="opacity:0.938" fill="#fff" d="M -0.5,294.5 C -0.5,292.5 -0.5,290.5 -0.5,288.5C 16.6044,270.895 33.9377,253.395 51.5,236C 54.5,235.333 57.5,235.333 60.5,236C 68.3333,243.833 76.1667,251.667 84,259.5C 98.5,245 113,230.5 127.5,216C 130.5,215.333 133.5,215.333 136.5,216C 149.5,229 162.5,242 175.5,255C 185.167,255.333 194.833,255.667 204.5,256C 207.286,259.074 209.952,262.241 212.5,265.5C 223.653,254.848 234.653,244.014 245.5,233C 251.725,231.749 258.058,231.083 264.5,231C 276.167,219.333 287.833,207.667 299.5,196C 302.5,195.333 305.5,195.333 308.5,196C 316.681,204.014 324.681,212.181 332.5,220.5C 329.5,225.167 326.5,229.833 323.5,234.5C 316.848,228.348 310.348,222.015 304,215.5C 293.5,226 283,236.5 272.5,247C 266.833,247.333 261.167,247.667 255.5,248C 231.805,272.028 207.805,295.695 183.5,319C 173.667,321.167 169.833,317.333 172,307.5C 181.136,297.363 190.636,287.53 200.5,278C 198.595,276.185 196.928,274.185 195.5,272C 186.167,271.667 176.833,271.333 167.5,271C 155.667,259.167 143.833,247.333 132,235.5C 117.5,250 103,264.5 88.5,279C 85.5,279.667 82.5,279.667 79.5,279C 71.6667,271.167 63.8333,263.333 56,255.5C 41.5,270 27,284.5 12.5,299C 6.82517,300.757 2.49184,299.257 -0.5,294.5 Z"/></g>
<g><path style="opacity:0.943" fill="#fff" d="M 511.5,274.5 C 511.5,281.833 511.5,289.167 511.5,296.5C 505.944,322.726 490.278,339.726 464.5,347.5C 463.667,368.826 463.167,390.159 463,411.5C 462.626,412.416 462.126,413.25 461.5,414C 458.298,415.483 454.964,415.817 451.5,415C 449.667,414.5 448.5,413.333 448,411.5C 447.833,390.159 447.333,368.826 446.5,347.5C 442.808,346.436 439.141,345.269 435.5,344C 433.777,343.477 432.444,342.477 431.5,341C 433.415,335.749 435.415,330.583 437.5,325.5C 440.596,327.421 443.93,328.754 447.5,329.5C 447.333,316.829 447.5,304.162 448,291.5C 449.529,288.484 452.029,287.151 455.5,287.5C 458.971,287.151 461.471,288.484 463,291.5C 463.5,304.162 463.667,316.829 463.5,329.5C 480.882,323.8 491.049,311.8 494,293.5C 494.667,287.833 494.667,282.167 494,276.5C 486.983,255.497 477.316,235.83 465,217.5C 458.667,210.833 452.333,210.833 446,217.5C 437.985,229.523 430.985,242.19 425,255.5C 424.333,256.833 423.667,256.833 423,255.5C 419.924,249.933 417.091,244.266 414.5,238.5C 420.225,226.715 426.725,215.382 434,204.5C 443.226,195.523 454.059,193.023 466.5,197C 469.433,198.271 472.099,199.938 474.5,202C 490.958,224.083 503.291,248.249 511.5,274.5 Z"/></g>
<g><path style="opacity:0.941" fill="#fff" d="M 359.5,217.5 C 371.057,215.188 380.89,218.188 389,226.5C 402.888,246.608 413.888,268.275 422,291.5C 427.756,321.592 418.256,345.425 393.5,363C 388.096,365.857 382.429,368.024 376.5,369.5C 375.667,382.821 375.167,396.154 375,409.5C 373.471,412.516 370.971,413.849 367.5,413.5C 364.029,413.849 361.529,412.516 360,409.5C 359.833,396.154 359.333,382.821 358.5,369.5C 334.806,362.639 319.639,347.306 313,323.5C 310.048,308.426 311.381,293.759 317,279.5C 325.027,260.84 334.694,243.173 346,226.5C 349.882,222.429 354.382,219.429 359.5,217.5 Z M 363.5,234.5 C 369.07,233.416 373.57,235.083 377,239.5C 389.316,257.83 398.983,277.497 406,298.5C 408.941,321.113 400.774,338.279 381.5,350C 379.564,350.813 377.564,351.313 375.5,351.5C 375.667,338.829 375.5,326.162 375,313.5C 373.471,310.484 370.971,309.151 367.5,309.5C 364.029,309.151 361.529,310.484 360,313.5C 359.5,326.162 359.333,338.829 359.5,351.5C 342.496,345.984 332.329,334.317 329,316.5C 328.152,309.101 328.485,301.767 330,294.5C 337.483,275.199 346.817,256.866 358,239.5C 359.73,237.598 361.563,235.931 363.5,234.5 Z"/></g>
<g><path style="opacity:0.931" fill="#fff" d="M 129.5,339.5 C 174.55,337.131 218.55,342.798 261.5,356.5C 274.876,350.874 288.376,345.541 302,340.5C 302.772,340.645 303.439,340.978 304,341.5C 305.995,346.16 308.495,350.494 311.5,354.5C 298.16,359.894 284.827,365.394 271.5,371C 256.542,378.395 241.709,385.895 227,393.5C 219.526,392.23 216.859,387.896 219,380.5C 224.906,375.46 231.406,371.294 238.5,368C 179.32,352.11 120.32,352.777 61.5,370C 43.9578,375.847 26.4578,381.681 9,387.5C 1.42033,387.044 -1.24634,383.044 1,375.5C 2.1094,373.185 3.94273,371.685 6.5,371C 46.0725,354.358 87.0725,343.858 129.5,339.5 Z"/></g>
<g><path style="opacity:0.938" fill="#fff" d="M 511.5,492.5 C 511.5,497.5 511.5,502.5 511.5,507.5C 510.5,509.167 509.167,510.5 507.5,511.5C 504.833,511.5 502.167,511.5 499.5,511.5C 497.03,509.918 495.53,507.585 495,504.5C 495.459,494.589 491.959,486.423 484.5,480C 471.348,470.838 456.682,465.838 440.5,465C 413.954,463.322 387.621,464.989 361.5,470C 324.793,478.541 287.793,485.541 250.5,491C 185.286,499.4 120.619,496.4 56.5,482C 37.4617,477.654 19.1284,471.321 1.5,463C 0.934056,462.005 0.267389,461.172 -0.5,460.5C -0.5,457.833 -0.5,455.167 -0.5,452.5C 2.55598,448.759 6.55598,447.593 11.5,449C 64.9143,469.292 120.248,479.125 177.5,478.5C 214.469,478.154 251.135,474.654 287.5,468C 320.518,459.996 353.851,453.663 387.5,449C 406.216,446.862 424.882,446.528 443.5,448C 467.018,448.848 486.851,457.681 503,474.5C 506.69,480.208 509.523,486.208 511.5,492.5 Z"/></g>
</svg>
