<?xml version="1.0" standalone="no"?>
<!DOCTYPE svg PUBLIC "-//W3C//DTD SVG 20010904//EN"
 "http://www.w3.org/TR/2001/REC-SVG-20010904/DTD/svg10.dtd">
<svg version="1.0" xmlns="http://www.w3.org/2000/svg"
 width="512.000000pt" height="512.000000pt" viewBox="0 0 512.000000 512.000000"
 preserveAspectRatio="xMidYMid meet">

<g transform="translate(0.000000,512.000000) scale(0.100000,-0.100000)"
fill="#fff" stroke="none">
<path d="M585 4535 l-25 -24 0 -476 0 -476 25 -24 c24 -25 27 -25 189 -25 160
0 166 1 193 24 l28 24 3 281 3 280 280 3 281 3 24 28 c23 27 24 33 24 193 0
162 0 165 -25 189 l-24 25 -476 0 -476 0 -24 -25z m865 -195 l0 -60 -285 0
c-272 0 -286 -1 -305 -20 -19 -19 -20 -33 -20 -305 l0 -285 -60 0 -60 0 0 365
0 365 365 0 365 0 0 -60z"/>
<path d="M3535 4535 c-25 -24 -25 -27 -25 -189 0 -160 1 -166 24 -193 l24 -28
281 -3 280 -3 3 -280 3 -281 28 -24 c27 -23 33 -24 193 -24 162 0 165 0 189
25 l25 24 0 476 0 476 -25 24 -24 25 -476 0 -476 0 -24 -25z m865 -500 l0
-365 -60 0 -60 0 0 285 c0 272 -1 286 -20 305 -19 19 -33 20 -305 20 l-285 0
0 60 0 60 365 0 365 0 0 -365z"/>
<path d="M2513 4265 c-27 -19 -141 -172 -211 -282 -43 -68 -150 -273 -164
-313 -2 -6 -40 14 -88 46 -97 65 -234 134 -266 134 -37 0 -73 -39 -118 -129
-96 -192 -131 -347 -123 -551 6 -147 29 -249 86 -375 36 -79 125 -218 177
-275 37 -41 38 -43 36 -114 -5 -132 49 -250 160 -351 63 -57 177 -121 266
-150 l52 -17 0 -63 0 -64 -82 39 c-145 70 -212 82 -470 87 l-227 5 -31 -30
c-16 -17 -30 -41 -30 -54 0 -38 94 -219 154 -295 140 -179 358 -298 593 -326
l93 -11 0 -141 c0 -129 2 -145 21 -169 l20 -26 199 0 199 0 20 26 c19 24 21
40 21 168 l0 142 97 12 c239 30 443 142 584 319 62 79 159 262 159 301 0 13
-14 37 -30 54 l-31 30 -227 -5 c-258 -5 -325 -17 -469 -87 l-83 -39 0 64 0 63
53 17 c88 29 202 93 265 150 111 101 165 219 160 351 -2 71 -2 71 42 122 67
78 155 223 191 315 109 282 89 586 -57 878 -45 90 -81 129 -118 129 -32 0
-169 -69 -266 -134 -48 -32 -86 -52 -88 -46 -14 40 -121 245 -164 313 -70 110
-184 263 -211 282 -12 8 -33 15 -47 15 -14 0 -35 -7 -47 -15z m130 -308 c75
-112 174 -298 197 -370 l12 -37 -72 -83 c-72 -82 -146 -185 -190 -264 -13 -24
-26 -43 -29 -43 -3 0 -24 31 -45 68 -56 95 -110 166 -184 244 l-65 68 12 42
c21 72 119 256 198 375 41 62 78 113 83 113 5 0 42 -51 83 -113z m-728 -345
c236 -139 433 -364 533 -608 27 -66 28 -71 15 -119 -26 -97 -43 -241 -43 -363
l0 -124 -42 7 c-94 15 -207 48 -283 84 -64 30 -92 51 -138 102 -119 130 -201
282 -238 436 -18 75 -20 108 -16 223 5 147 23 227 78 350 36 79 23 77 134 12z
m1459 -102 c37 -112 49 -184 49 -290 0 -116 -15 -201 -54 -300 -66 -173 -208
-360 -314 -417 -104 -55 -250 -94 -407 -108 l-68 -6 0 129 c0 325 99 590 309
831 75 86 218 204 327 269 l88 52 23 -42 c12 -24 33 -77 47 -118z m-1313
-1184 c85 -37 246 -74 384 -87 205 -19 451 15 610 86 32 14 59 25 61 25 1 0
-1 -13 -5 -28 -62 -213 -400 -350 -709 -286 -200 41 -355 154 -393 286 -4 15
-6 28 -5 28 2 0 28 -11 57 -24z m579 -896 l0 -430 -80 0 -80 0 0 430 0 430 80
0 80 0 0 -430z m-596 275 c76 -21 150 -54 220 -99 l56 -36 0 -115 c0 -132 9
-124 -109 -104 -144 23 -273 86 -380 185 -57 52 -141 164 -141 187 0 15 283 1
354 -18z m1386 17 c0 -16 -62 -105 -108 -154 -119 -127 -275 -203 -460 -224
l-63 -7 3 119 3 119 79 47 c81 48 175 83 261 97 66 11 285 13 285 3z"/>
<path d="M585 1585 l-25 -24 0 -476 0 -476 25 -24 24 -25 476 0 476 0 24 25
c25 24 25 27 25 189 0 160 -1 166 -24 193 l-24 28 -281 3 -280 3 -3 280 -3
281 -28 24 c-27 23 -33 24 -193 24 -162 0 -165 0 -189 -25z m255 -420 c0 -272
1 -286 20 -305 19 -19 33 -20 305 -20 l285 0 0 -60 0 -60 -365 0 -365 0 0 365
0 365 60 0 60 0 0 -285z"/>
<path d="M4153 1586 l-28 -24 -3 -281 -3 -280 -280 -3 -281 -3 -24 -28 c-23
-27 -24 -33 -24 -193 0 -162 0 -165 25 -189 l24 -25 476 0 476 0 24 25 25 24
0 476 0 476 -25 24 c-24 25 -27 25 -189 25 -160 0 -166 -1 -193 -24z m247
-501 l0 -365 -365 0 -365 0 0 60 0 60 285 0 c272 0 286 1 305 20 19 19 20 33
20 305 l0 285 60 0 60 0 0 -365z"/>
</g>
</svg>
