<?xml version="1.0" standalone="no"?>
<!DOCTYPE svg PUBLIC "-//W3C//DTD SVG 20010904//EN"
 "http://www.w3.org/TR/2001/REC-SVG-20010904/DTD/svg10.dtd">
<svg version="1.0" xmlns="http://www.w3.org/2000/svg"
 width="512.000000pt" height="512.000000pt" viewBox="0 0 512.000000 512.000000"
 preserveAspectRatio="xMidYMid meet">

<g transform="translate(0.000000,512.000000) scale(0.100000,-0.100000)"
fill="#fff" stroke="none">
<path d="M1600 4350 c-514 -380 -941 -698 -947 -707 -21 -27 -15 -72 12 -98
22 -23 32 -25 120 -25 l95 0 0 -160 0 -160 -375 0 -376 0 -24 -25 -25 -24 0
-271 0 -271 25 -24 c20 -21 34 -25 80 -25 l55 0 0 -1000 0 -1000 -55 0 c-46 0
-60 -4 -80 -25 -25 -24 -25 -26 -25 -215 0 -189 0 -191 25 -215 l24 -25 2431
0 2431 0 24 25 c25 24 25 26 25 215 0 189 0 191 -25 215 -20 21 -34 25 -80 25
l-55 0 0 1000 0 1000 55 0 c46 0 60 4 80 25 l25 24 0 271 0 271 -25 24 -24 25
-376 0 -375 0 0 160 0 160 95 0 c88 0 98 2 120 25 30 29 33 74 8 103 -10 11
-434 328 -943 703 -647 478 -934 684 -955 687 -26 3 -148 -84 -965 -688z
m1759 -80 l792 -585 -796 -3 c-437 -1 -1153 -1 -1590 0 l-795 3 793 587 c435
322 795 586 799 585 3 -1 362 -265 797 -587z m721 -910 l0 -160 -1520 0 -1520
0 0 160 0 160 1520 0 1520 0 0 -160z m800 -480 l0 -160 -2320 0 -2320 0 0 160
0 160 2320 0 2320 0 0 -160z m-160 -1320 l0 -1000 -720 0 -720 0 0 680 0 680
55 0 c46 0 60 4 80 25 25 24 25 26 25 215 0 189 0 191 -25 215 l-24 25 -831 0
-831 0 -24 -25 c-25 -24 -25 -26 -25 -215 0 -189 0 -191 25 -215 20 -21 34
-25 80 -25 l55 0 0 -680 0 -680 -720 0 -720 0 0 1000 0 1000 2160 0 2160 0 0
-1000z m-1440 600 l0 -80 -720 0 -720 0 0 80 0 80 720 0 720 0 0 -80z m-160
-920 l0 -680 -560 0 -560 0 0 680 0 680 560 0 560 0 0 -680z m1760 -920 l0
-80 -2320 0 -2320 0 0 80 0 80 2320 0 2320 0 0 -80z"/>
<path d="M665 2135 l-25 -24 0 -271 0 -271 25 -24 24 -25 271 0 271 0 24 25
25 24 0 271 0 271 -25 24 -24 25 -271 0 -271 0 -24 -25z m455 -295 l0 -160
-160 0 -160 0 0 160 0 160 160 0 160 0 0 -160z"/>
<path d="M3865 2135 l-25 -24 0 -271 0 -271 25 -24 24 -25 271 0 271 0 24 25
25 24 0 271 0 271 -25 24 -24 25 -271 0 -271 0 -24 -25z m455 -295 l0 -160
-160 0 -160 0 0 160 0 160 160 0 160 0 0 -160z"/>
<path d="M665 1335 l-25 -24 0 -271 0 -271 25 -24 24 -25 271 0 271 0 24 25
25 24 0 271 0 271 -25 24 -24 25 -271 0 -271 0 -24 -25z m455 -295 l0 -160
-160 0 -160 0 0 160 0 160 160 0 160 0 0 -160z"/>
<path d="M3865 1335 l-25 -24 0 -271 0 -271 25 -24 24 -25 271 0 271 0 24 25
25 24 0 271 0 271 -25 24 -24 25 -271 0 -271 0 -24 -25z m455 -295 l0 -160
-160 0 -160 0 0 160 0 160 160 0 160 0 0 -160z"/>
<path d="M2160 1520 l0 -80 80 0 80 0 0 80 0 80 -80 0 -80 0 0 -80z"/>
</g>
</svg>
