<?xml version="1.0" encoding="UTF-8"?>
<!DOCTYPE svg PUBLIC "-//W3C//DTD SVG 1.1//EN" "http://www.w3.org/Graphics/SVG/1.1/DTD/svg11.dtd">
<svg xmlns="http://www.w3.org/2000/svg" version="1.1" width="512px" height="512px" style="shape-rendering:geometricPrecision; text-rendering:geometricPrecision; image-rendering:optimizeQuality; fill-rule:evenodd; clip-rule:evenodd" xmlns:xlink="http://www.w3.org/1999/xlink">
<g><path style="opacity:0.88" fill="#236a44" d="M 257.5,-0.5 C 266.167,-0.5 274.833,-0.5 283.5,-0.5C 301.421,3.29323 317.421,11.1266 331.5,23C 386.383,35.9062 410.216,70.4062 403,126.5C 400.358,143.768 394.191,159.601 384.5,174C 396.739,182.698 401.572,194.532 399,209.5C 395.751,226.586 385.584,236.252 368.5,238.5C 366.487,244.861 363.654,250.861 360,256.5C 360.685,271.795 355.185,284.295 343.5,294C 340.89,295.481 338.223,296.648 335.5,297.5C 335.22,307.492 338.053,316.492 344,324.5C 352.06,328.445 360.227,332.279 368.5,336C 400.051,358.287 424.217,386.787 441,421.5C 445.907,444.45 440.074,464.283 423.5,481C 412.799,488.778 400.799,491.945 387.5,490.5C 387.795,497.588 387.462,504.588 386.5,511.5C 326.167,511.5 265.833,511.5 205.5,511.5C 205.013,510.527 204.513,509.527 204,508.5C 203.667,492.833 203.333,477.167 203,461.5C 180.003,477.055 154.67,486.055 127,488.5C 100.86,487.601 83.1937,474.934 74,450.5C 64.6486,423.121 65.6486,396.121 77,369.5C 87.511,344.143 98.8443,319.143 111,294.5C 114.23,287.373 116.897,280.04 119,272.5C 119.644,247.662 119.477,222.829 118.5,198C 116.773,180.857 120.94,165.357 131,151.5C 136.985,143.517 143.652,136.183 151,129.5C 152.336,123.991 154.17,118.657 156.5,113.5C 150.143,112.139 143.81,110.639 137.5,109C 135.604,107.192 135.104,105.025 136,102.5C 144.584,96.5868 152.584,89.9201 160,82.5C 177.386,60.7746 195.886,39.9413 215.5,20C 227.848,9.65896 241.848,2.82563 257.5,-0.5 Z M 259.5,8.5 C 285.651,6.49406 308.318,14.3274 327.5,32C 370.904,39.2296 393.571,64.7296 395.5,108.5C 394.945,128.662 389.445,147.329 379,164.5C 375.433,153.365 370.767,142.698 365,132.5C 354.472,117.618 345.139,101.951 337,85.5C 333.881,77.6877 331.381,69.6877 329.5,61.5C 326.718,60.048 324.218,60.3813 322,62.5C 320.776,78.7339 316.442,94.0672 309,108.5C 307.357,110.977 305.524,113.31 303.5,115.5C 300.528,113.032 297.194,111.198 293.5,110C 274.167,109.333 254.833,109.333 235.5,110C 230.501,111.166 226.501,113.833 223.5,118C 214.657,118.009 205.824,117.509 197,116.5C 190.857,117.228 184.691,117.728 178.5,118C 173.671,118.541 169.004,119.707 164.5,121.5C 164.167,121.167 163.833,120.833 163.5,120.5C 165.836,115.825 168.669,111.492 172,107.5C 173.416,103.492 172.082,101.159 168,100.5C 162.934,102.174 157.767,102.674 152.5,102C 158.635,96.866 164.469,91.366 170,85.5C 185.716,65.444 202.55,46.2773 220.5,28C 231.955,18.2724 244.955,11.7724 259.5,8.5 Z M 327.5,87.5 C 336.366,105.56 346.532,122.893 358,139.5C 365.01,151.531 369.843,164.364 372.5,178C 370.501,197.662 366.335,216.829 360,235.5C 359.667,213.167 359.333,190.833 359,168.5C 355.369,152.202 345.536,141.702 329.5,137C 323.883,135.948 318.216,135.282 312.5,135C 310.877,131.967 309.544,128.8 308.5,125.5C 317.47,114.228 323.803,101.561 327.5,87.5 Z M 237.5,118.5 C 256.235,118.039 274.902,118.539 293.5,120C 295,121.5 296.5,123 298,124.5C 300.447,131.221 303.28,137.721 306.5,144C 318.433,143.15 329.433,145.817 339.5,152C 345.197,156.892 348.697,163.059 350,170.5C 350.667,202.5 350.667,234.5 350,266.5C 348.456,275.032 344.123,281.699 337,286.5C 337.888,277.165 339.221,267.832 341,258.5C 344.452,244.028 340.619,232.028 329.5,222.5C 324.691,186.688 304.357,167.354 268.5,164.5C 258.184,164.163 248.517,166.497 239.5,171.5C 233.911,163.709 226.244,160.209 216.5,161C 200.974,160.194 185.641,161.528 170.5,165C 168.523,166.541 166.523,167.041 164.5,166.5C 168.391,156.442 175.391,149.608 185.5,146C 197.808,144.963 210.141,144.129 222.5,143.5C 225.609,136.949 228.442,130.282 231,123.5C 232.965,121.45 235.132,119.783 237.5,118.5 Z M 180.5,126.5 C 193.546,126.123 206.546,126.623 219.5,128C 218.214,130.022 217.214,132.189 216.5,134.5C 205.476,135.149 194.476,135.982 183.5,137C 165.512,142.997 155.679,155.497 154,174.5C 150.703,176.795 147.703,179.462 145,182.5C 142.407,188.914 144.574,191.414 151.5,190C 166.647,174.03 185.314,167.197 207.5,169.5C 213.189,169.743 218.856,170.243 224.5,171C 231.823,174.244 232.156,177.911 225.5,182C 205.832,184.467 186.499,188.467 167.5,194C 157.844,198.659 149.677,205.159 143,213.5C 141.833,219 144,221.167 149.5,220C 156.782,211.7 165.449,205.367 175.5,201C 189.369,197.292 203.369,194.626 217.5,193C 214.977,196.378 212.977,200.045 211.5,204C 193.147,207.782 175.814,214.115 159.5,223C 155.667,226.833 151.833,230.667 148,234.5C 145.335,238.912 146.168,242.245 150.5,244.5C 155.265,240.237 159.932,235.737 164.5,231C 178.176,223.549 192.676,218.049 208,214.5C 208.5,214.833 209,215.167 209.5,215.5C 208.574,219.094 208.241,222.76 208.5,226.5C 192.531,229.097 178.031,235.097 165,244.5C 157.582,252.921 155.248,262.588 158,273.5C 161,278.5 164,283.5 167,288.5C 167.935,290.909 168.435,293.409 168.5,296C 161.582,344.51 153.582,392.843 144.5,441C 145.159,445.082 147.492,446.416 151.5,445C 152,444.5 152.5,444 153,443.5C 155.547,431.551 157.881,419.551 160,407.5C 166.24,417.22 169.907,427.886 171,439.5C 171.909,449.252 171.409,458.918 169.5,468.5C 151.365,477.765 132.365,480.598 112.5,477C 96.1285,470.958 85.6285,459.458 81,442.5C 75.6169,424.914 75.2836,407.247 80,389.5C 83.607,378.678 87.607,368.012 92,357.5C 102.194,335.918 112.194,314.251 122,292.5C 127.532,280.638 130.032,268.138 129.5,255C 128.719,235.839 128.053,216.673 127.5,197.5C 125.968,182.27 129.802,168.603 139,156.5C 146.643,145.188 156.476,136.355 168.5,130C 172.543,128.509 176.543,127.342 180.5,126.5 Z M 261.5,173.5 C 288.457,171.988 306.957,183.654 317,208.5C 323.671,237.845 313.504,259.012 286.5,272C 261.773,279.535 241.607,273.035 226,252.5C 210.884,223.196 216.718,199.029 243.5,180C 249.294,176.905 255.294,174.739 261.5,173.5 Z M 380.5,183.5 C 384.884,185.394 387.718,188.727 389,193.5C 392.555,209.055 387.388,220.721 373.5,228.5C 373.167,228.167 372.833,227.833 372.5,227.5C 376.676,213.11 379.343,198.444 380.5,183.5 Z M 265.5,192.5 C 286.097,193.431 297.764,204.098 300.5,224.5C 295.143,251.181 279.476,260.348 253.5,252C 235.894,239.195 232.728,223.361 244,204.5C 250.012,198.248 257.179,194.248 265.5,192.5 Z M 327.5,234.5 C 331.332,238.662 332.999,243.662 332.5,249.5C 330.885,262.525 329.051,275.525 327,288.5C 325.028,302.003 327.361,314.669 334,326.5C 347.86,343.539 362.193,360.206 377,376.5C 396.111,397.798 407.111,422.798 410,451.5C 412.667,454.167 415.333,454.167 418,451.5C 418.405,443.1 417.239,434.934 414.5,427C 420.346,425.049 426.346,424.215 432.5,424.5C 435.978,444.897 429.978,462.063 414.5,476C 406.896,480.255 398.73,482.088 390,481.5C 374.411,481.969 360.245,477.802 347.5,469C 344.547,465.592 341.713,462.092 339,458.5C 323.733,429.368 310.4,399.368 299,368.5C 295.302,361.592 290.136,356.092 283.5,352C 267.261,345.214 251.261,337.881 235.5,330C 230.884,327.44 226.718,324.273 223,320.5C 221.069,317.386 220.402,314.053 221,310.5C 233.48,319.325 246.98,325.825 261.5,330C 264.93,327.622 265.263,324.955 262.5,322C 249.233,316.368 236.566,309.701 224.5,302C 218.822,297.483 216.322,291.649 217,284.5C 229.468,293.988 242.968,301.822 257.5,308C 264.712,309.304 266.712,306.804 263.5,300.5C 247.118,293.899 232.285,284.899 219,273.5C 215.372,267.809 214.705,261.809 217,255.5C 232.517,278.504 254.017,287.671 281.5,283C 307.136,276.532 322.47,260.365 327.5,234.5 Z M 206.5,235.5 C 207.675,235.281 208.675,235.614 209.5,236.5C 210.243,238.638 210.91,240.804 211.5,243C 206.363,252.662 205.363,262.662 208.5,273C 207.522,279.41 207.189,285.91 207.5,292.5C 197.427,293.435 187.761,291.935 178.5,288C 175.14,282.794 171.64,277.627 168,272.5C 164.4,262.623 166.9,254.456 175.5,248C 185.653,243.122 195.987,238.955 206.5,235.5 Z M 177.5,298.5 C 188.66,301.08 199.993,302.08 211.5,301.5C 210.162,310.629 211.662,319.296 216,327.5C 217.214,329.049 218.714,330.215 220.5,331C 199.654,342.837 181.487,358.003 166,376.5C 169.967,350.567 173.8,324.567 177.5,298.5 Z M 228.5,337.5 C 244.985,345.24 261.652,352.74 278.5,360C 281.965,362.463 285.131,365.296 288,368.5C 296.591,388.021 304.925,407.688 313,427.5C 318.885,440.938 325.552,453.938 333,466.5C 344.31,480.741 359.143,488.574 377.5,490C 378.464,494.066 378.797,498.233 378.5,502.5C 323.167,502.5 267.833,502.5 212.5,502.5C 212.667,475.498 212.5,448.498 212,421.5C 208.606,419.725 205.94,420.392 204,423.5C 203.667,432.5 203.333,441.5 203,450.5C 195.542,455.642 187.709,459.809 179.5,463C 183.055,438.056 177.722,415.223 163.5,394.5C 181.182,370.809 202.849,351.809 228.5,337.5 Z M 359.5,342.5 C 364.105,344.471 368.438,346.971 372.5,350C 394.467,368.457 412.801,389.957 427.5,414.5C 422.217,415.821 416.884,416.821 411.5,417.5C 408.125,405.418 402.625,394.418 395,384.5C 383.707,370.041 371.874,356.041 359.5,342.5 Z"/></g>
<g><path style="opacity:0.87" fill="#236a44" d="M 263.5,183.5 C 286.264,182.62 301.097,192.953 308,214.5C 311.94,239.799 301.774,256.299 277.5,264C 248.173,266.838 231.506,253.672 227.5,224.5C 229.652,202.023 241.652,188.356 263.5,183.5 Z M 265.5,192.5 C 257.179,194.248 250.012,198.248 244,204.5C 232.728,223.361 235.894,239.195 253.5,252C 279.476,260.348 295.143,251.181 300.5,224.5C 297.764,204.098 286.097,193.431 265.5,192.5 Z"/></g>
</svg>
