<?xml version="1.0" standalone="no"?>
<!DOCTYPE svg PUBLIC "-//W3C//DTD SVG 20010904//EN"
 "http://www.w3.org/TR/2001/REC-SVG-20010904/DTD/svg10.dtd">
<svg version="1.0" xmlns="http://www.w3.org/2000/svg"
 width="512.000000pt" height="512.000000pt" viewBox="0 0 512.000000 512.000000"
 preserveAspectRatio="xMidYMid meet">

<g transform="translate(0.000000,512.000000) scale(0.100000,-0.100000)"
fill="#fff" stroke="none">
<path d="M2375 4844 c-125 -13 -274 -39 -377 -65 -644 -162 -1196 -608 -1489
-1204 -112 -227 -177 -436 -216 -685 -24 -160 -24 -501 0 -660 80 -515 308
-957 679 -1316 348 -336 771 -545 1258 -621 160 -24 500 -24 660 0 515 80 957
308 1316 679 337 349 545 770 621 1258 24 160 24 500 0 660 -76 488 -284 909
-621 1258 -357 369 -802 599 -1306 677 -101 15 -441 28 -525 19z m515 -119
c463 -72 882 -285 1216 -619 337 -338 547 -752 621 -1227 12 -82 17 -172 17
-319 0 -228 -14 -353 -64 -546 -74 -285 -208 -558 -392 -796 l-60 -77 -32 23
c-17 13 -222 137 -456 276 -234 139 -438 265 -454 279 -58 53 -66 86 -66 303
l0 198 44 59 c98 134 196 373 231 566 9 50 28 149 43 220 37 183 37 377 0 516
-97 361 -393 640 -787 740 -206 52 -473 25 -618 -63 -17 -10 -71 -34 -118 -53
-362 -142 -495 -442 -457 -1032 19 -283 69 -487 168 -685 48 -96 130 -224 158
-247 14 -12 16 -41 16 -215 0 -222 -7 -253 -66 -307 -16 -15 -220 -140 -454
-279 -234 -139 -439 -263 -457 -276 l-32 -24 -59 78 c-236 309 -380 645 -439
1023 -24 158 -24 480 0 638 74 475 285 892 621 1226 376 374 819 581 1371 639
83 9 404 -4 505 -19z m-140 -508 c381 -99 658 -395 711 -759 13 -89 7 -238
-14 -328 l-12 -55 -45 3 c-71 5 -228 31 -312 53 -264 67 -441 166 -786 441
-68 54 -129 98 -136 98 -29 0 -50 -34 -125 -202 -44 -97 -96 -202 -116 -233
-58 -87 -135 -142 -215 -152 l-37 -5 -6 98 c-15 224 -2 410 39 552 34 116 67
175 139 248 65 65 117 97 223 139 37 15 103 44 147 65 44 21 105 43 135 49 30
6 64 13 75 15 51 12 244 -4 335 -27z m-355 -852 c309 -233 595 -350 938 -381
l77 -7 0 -31 c-1 -44 -34 -189 -65 -281 -106 -315 -296 -533 -548 -627 -70
-27 -100 -32 -202 -36 -171 -6 -289 26 -430 119 -225 146 -401 432 -471 762
-19 94 -20 94 27 100 70 9 162 62 221 126 54 57 118 169 173 301 15 36 34 80
42 98 l14 33 57 -46 c31 -25 107 -84 167 -130z m-333 -1295 c72 -54 187 -113
278 -142 65 -20 96 -23 225 -23 116 0 163 4 210 18 87 27 211 89 280 142 l60
45 5 -162 c4 -129 9 -170 23 -197 9 -19 16 -35 15 -36 -2 -1 -137 -113 -300
-249 l-298 -248 -297 248 c-164 136 -299 248 -301 249 -1 1 7 22 18 46 17 38
20 66 20 197 0 83 2 152 5 152 2 0 28 -18 57 -40z m123 -668 c149 -124 276
-230 283 -236 9 -9 -31 -45 -183 -161 -108 -83 -199 -151 -203 -152 -7 -2
-474 576 -479 593 -1 5 52 42 120 82 67 39 133 81 147 91 13 11 29 17 35 13 5
-3 132 -107 280 -230z m1243 108 c50 -30 92 -57 92 -60 0 -3 -100 -129 -221
-280 -122 -151 -230 -286 -240 -298 l-18 -24 -194 149 c-107 81 -195 152 -196
156 -2 5 127 116 284 247 l288 238 56 -37 c31 -21 98 -62 149 -91z m-1646
-450 c135 -168 252 -311 261 -319 10 -7 27 -11 39 -7 13 3 125 85 251 181
l227 176 228 -176 c125 -96 237 -178 250 -181 12 -4 29 0 39 7 9 8 133 159
276 337 247 307 261 322 281 309 12 -8 132 -80 268 -160 136 -81 249 -151 252
-156 3 -5 -36 -48 -86 -96 -332 -313 -736 -511 -1189 -582 -156 -24 -481 -24
-634 0 -372 58 -700 195 -997 417 -139 104 -293 249 -278 264 6 6 129 81 273
167 243 146 263 156 278 141 9 -9 126 -154 261 -322z"/>
</g>
</svg>
