<?xml version="1.0" standalone="no"?>
<!DOCTYPE svg PUBLIC "-//W3C//DTD SVG 20010904//EN"
 "http://www.w3.org/TR/2001/REC-SVG-20010904/DTD/svg10.dtd">
<svg version="1.0" xmlns="http://www.w3.org/2000/svg"
 width="512.000000pt" height="512.000000pt" viewBox="0 0 512.000000 512.000000"
 preserveAspectRatio="xMidYMid meet">

<g transform="translate(0.000000,512.000000) scale(0.100000,-0.100000)"
fill="#236a44" stroke="none">
<path d="M125 4998 c-11 -6 -25 -19 -32 -27 -10 -13 -12 -437 -13 -1913 l0
-1897 24 -28 24 -28 206 -3 206 -3 0 -207 0 -207 -225 -225 c-212 -212 -225
-227 -225 -262 0 -28 6 -42 26 -57 54 -42 62 -37 291 191 l213 212 213 -211
c129 -129 222 -214 238 -218 31 -8 83 15 93 40 20 53 11 64 -229 305 l-235
236 0 202 0 202 680 0 681 0 -22 -29 c-37 -50 -1 -121 62 -121 25 0 46 14 108
75 l77 75 157 0 157 0 0 -44 c0 -86 27 -126 88 -126 48 0 72 36 72 108 l0 62
163 0 163 0 74 -75 c66 -66 79 -75 112 -75 67 0 99 70 57 124 l-20 26 570 0
571 0 0 -88 0 -87 -155 -155 c-85 -85 -159 -166 -166 -181 -23 -58 42 -123
100 -100 15 7 90 75 166 151 l139 140 151 -150 c132 -131 156 -150 184 -150
37 0 81 38 81 70 0 39 -29 75 -184 230 l-156 155 0 82 0 82 191 3 191 3 24 28
24 28 0 1897 c-1 1475 -3 1901 -13 1913 -7 9 -22 21 -34 27 -31 17 -4839 17
-4868 0z m4755 -233 l0 -85 -2320 0 -2320 0 0 85 0 85 2320 0 2320 0 0 -85z
m0 -1875 l0 -1631 -132 3 -133 3 -3 606 -2 606 37 24 c57 36 73 77 73 187 0
163 -37 205 -185 210 l-90 4 -30 50 c-60 100 -189 191 -306 216 -62 12 -102
-4 -118 -48 -12 -36 -14 -816 -2 -859 3 -13 19 -33 33 -44 25 -19 32 -19 81
-8 128 28 257 120 318 226 l29 50 0 -612 0 -613 -653 0 -652 0 -145 145 c-140
140 -144 145 -124 160 42 29 54 74 54 206 0 120 1 124 27 151 27 28 28 28 153
28 115 0 130 2 160 23 70 47 75 63 75 220 0 130 -2 145 -23 178 -35 58 -71 69
-213 69 -120 0 -124 1 -151 27 -28 27 -28 27 -28 157 0 147 -10 178 -72 216
-30 19 -47 20 -185 18 -146 -3 -152 -4 -178 -28 -48 -45 -55 -70 -55 -202 l0
-122 -32 -33 -32 -33 -123 0 c-133 0 -158 -7 -203 -55 -24 -26 -25 -32 -28
-178 -2 -138 -1 -155 18 -185 38 -62 69 -72 216 -72 130 0 130 0 157 -28 26
-27 27 -31 27 -156 0 -132 5 -152 46 -196 l24 -26 -143 -142 -144 -142 -759 2
-759 3 -1 820 c-2 813 -2 819 16 730 72 -360 291 -627 619 -751 101 -39 129
-41 165 -13 40 32 36 77 -14 134 -53 61 -71 107 -71 179 0 116 65 199 186 241
96 33 110 86 41 163 -56 62 -70 99 -70 177 0 116 55 191 171 235 76 28 93 45
93 90 0 28 -7 43 -31 66 -74 69 -101 200 -60 290 25 56 84 110 140 129 75 26
95 39 105 66 24 71 -25 109 -167 128 -261 36 -530 -34 -735 -193 -78 -60 -182
-171 -226 -243 l-37 -60 -98 24 -99 25 -45 -20 c-56 -25 -71 -52 -109 -196
-33 -130 -28 -166 27 -215 l35 -30 0 -891 0 -890 -150 0 -150 0 0 1630 0 1630
2320 0 2320 0 0 -1630z m-3246 858 c-19 -29 -41 -75 -49 -102 -17 -56 -20
-175 -6 -224 l10 -32 -67 7 c-122 14 -400 8 -476 -11 -38 -9 -71 -14 -73 -12
-6 6 22 49 80 124 128 164 379 293 584 301 l32 1 -35 -52z m-903 -435 c16 -3
29 -7 29 -9 0 -12 -34 -130 -39 -136 -8 -9 -96 17 -96 28 0 5 6 37 14 72 13
60 15 63 39 57 13 -3 37 -9 53 -12z m731 -69 l67 -7 -40 -56 c-56 -78 -83
-173 -76 -267 3 -41 2 -74 -1 -74 -17 0 -206 101 -272 146 -80 53 -214 180
-205 194 8 13 97 40 178 55 79 14 244 18 349 9z m-410 -392 c70 -47 286 -162
305 -162 4 0 14 -4 22 -9 12 -8 7 -18 -23 -52 -63 -69 -89 -139 -95 -253 l-6
-98 -62 46 c-107 81 -188 182 -248 309 -46 96 -65 173 -72 282 l-6 90 54 -51
c30 -27 89 -74 131 -102z m3177 71 c78 -77 105 -146 99 -253 -5 -75 -24 -129
-71 -191 -24 -34 -102 -91 -111 -82 -3 3 -6 136 -6 295 0 252 2 288 15 288 9
0 42 -26 74 -57z m331 -233 l0 -50 -35 0 -35 0 0 50 0 50 35 0 35 0 0 -50z
m-1790 -50 l0 -60 -85 0 -85 0 0 60 0 60 85 0 85 0 0 -60z m38 -253 c65 -42
96 -97 100 -176 3 -57 0 -73 -25 -121 -109 -207 -423 -130 -423 103 0 94 42
166 123 206 62 32 168 26 225 -12z m-508 -192 l0 -85 -60 0 -60 0 0 85 0 85
60 0 60 0 0 -85z m890 0 l0 -85 -62 0 -63 0 0 85 0 85 63 0 62 0 0 -85z m-420
-442 l0 -63 -85 0 -85 0 0 63 0 62 85 0 85 0 0 -62z m-170 -418 l0 -75 -70 0
c-38 0 -70 3 -70 7 0 7 131 143 137 143 2 0 3 -34 3 -75z m242 8 c38 -37 68
-71 68 -76 0 -4 -33 -7 -72 -5 l-73 3 -3 73 c-2 39 1 72 5 72 4 0 38 -30 75
-67z"/>
</g>
</svg>
