<?xml version="1.0" standalone="no"?>
<!DOCTYPE svg PUBLIC "-//W3C//DTD SVG 20010904//EN"
 "http://www.w3.org/TR/2001/REC-SVG-20010904/DTD/svg10.dtd">
<svg version="1.0" xmlns="http://www.w3.org/2000/svg"
 width="512.000000pt" height="512.000000pt" viewBox="0 0 512.000000 512.000000"
 preserveAspectRatio="xMidYMid meet">

<g transform="translate(0.000000,512.000000) scale(0.100000,-0.100000)"
fill="#fff" stroke="none">
<path d="M2662 5047 c-20 -21 -22 -35 -24 -171 l-3 -148 -133 -43 c-73 -25
-189 -73 -257 -108 l-123 -64 -105 105 c-90 90 -110 105 -137 105 -28 0 -61
-29 -292 -261 -312 -312 -299 -275 -147 -428 l100 -100 -63 -125 c-51 -99
-102 -233 -144 -376 -2 -10 -41 -13 -147 -13 -131 0 -147 -2 -171 -21 l-26
-20 0 -368 c0 -361 0 -368 21 -387 18 -16 42 -20 171 -24 l150 -5 18 -57 c10
-32 20 -68 24 -81 l5 -22 -162 0 c-119 -1 -184 -5 -247 -19 -581 -125 -982
-638 -957 -1222 29 -645 551 -1144 1198 -1144 662 0 1208 560 1187 1218 -2 56
-3 102 -3 102 0 0 54 -18 120 -39 l120 -39 3 -148 c2 -136 4 -150 24 -171 l21
-23 363 0 c341 0 363 1 385 19 23 18 24 25 27 173 l3 155 52 12 c92 23 239 82
350 139 l108 56 97 -97 c108 -107 133 -121 177 -102 17 7 139 123 273 257 222
224 242 247 242 278 0 31 -12 47 -106 141 l-105 105 42 73 c50 87 117 250 150
361 l23 80 148 0 c145 0 150 1 173 25 l25 24 0 361 0 361 -25 24 c-23 24 -28
25 -173 25 l-148 0 -23 80 c-33 111 -100 274 -150 361 l-42 73 105 105 c94 94
106 110 106 141 0 31 -20 54 -242 278 -134 134 -256 250 -273 257 -44 19 -69
5 -177 -102 l-96 -96 -134 66 c-118 59 -325 137 -363 137 -11 0 -14 32 -17
156 -3 150 -4 157 -27 175 -22 18 -44 19 -385 19 l-363 0 -21 -23z m638 -277
c0 -133 1 -142 23 -164 14 -14 46 -27 86 -35 137 -27 349 -114 480 -198 30
-19 69 -37 88 -40 31 -5 39 0 136 95 l102 102 177 -177 178 -177 -100 -102
c-77 -78 -100 -107 -100 -128 0 -15 20 -60 44 -99 90 -148 139 -266 186 -439
20 -78 36 -118 51 -130 18 -15 43 -18 160 -18 l139 0 0 -250 0 -250 -139 0
c-117 0 -142 -3 -160 -17 -15 -13 -31 -53 -51 -131 -47 -173 -107 -314 -191
-448 -58 -91 -56 -100 61 -218 l100 -102 -178 -177 -177 -177 -101 100 c-72
71 -108 100 -125 100 -13 0 -56 -18 -94 -41 -169 -99 -293 -151 -465 -194
-131 -33 -130 -33 -130 -206 l0 -139 -250 0 -250 0 0 134 c0 171 -3 175 -140
212 -108 28 -213 65 -268 93 -31 16 -40 28 -55 75 -65 212 -239 448 -435 589
-79 57 -224 134 -294 156 -33 11 -38 18 -63 84 -14 39 -37 114 -51 167 -35
137 -39 140 -210 140 l-134 0 0 250 0 250 134 0 c172 0 175 2 211 144 34 131
93 282 151 381 80 139 86 153 78 177 -3 13 -50 67 -102 121 l-96 98 177 176
176 177 104 -102 c71 -70 111 -102 127 -102 13 0 64 24 114 54 141 84 263 134
436 180 137 37 140 41 140 212 l0 134 250 0 250 0 0 -140z m-1850 -2521 c374
-95 661 -379 757 -748 168 -649 -327 -1291 -997 -1291 -478 0 -883 313 -1008
779 -22 83 -25 117 -26 251 0 127 3 170 21 240 104 413 434 718 848 786 110
18 296 10 405 -17z"/>
<path d="M2955 4194 c-198 -27 -304 -57 -438 -125 -125 -63 -216 -131 -319
-237 -167 -173 -265 -357 -313 -587 -67 -323 14 -682 212 -945 63 -84 198
-211 285 -270 213 -143 415 -204 673 -203 252 1 470 69 672 212 322 228 503
576 503 971 0 503 -302 936 -776 1115 -128 48 -389 84 -499 69z m205 -164
c234 -29 426 -120 597 -283 159 -153 254 -326 298 -546 26 -126 17 -345 -19
-466 -46 -153 -142 -330 -224 -408 l-27 -26 -71 77 c-100 109 -217 187 -373
249 l-24 9 36 23 c85 52 171 180 202 298 92 352 -218 697 -577 645 -289 -42
-492 -313 -448 -598 20 -129 100 -258 218 -351 l24 -19 -68 -28 c-126 -51
-264 -154 -356 -265 -20 -23 -41 -40 -47 -37 -5 4 -37 43 -71 87 -77 103 -143
239 -177 365 -23 87 -26 118 -26 254 0 136 3 167 26 255 51 191 173 391 314
512 225 195 514 287 793 253z m23 -610 c78 -29 149 -96 189 -178 30 -62 33
-74 32 -162 0 -76 -4 -105 -22 -143 -32 -71 -111 -149 -185 -183 -54 -25 -74
-29 -152 -29 -77 0 -98 4 -147 27 -149 70 -238 238 -208 392 29 147 134 260
277 296 54 13 150 4 216 -20z m55 -931 c107 -27 221 -90 307 -171 42 -39 84
-83 96 -99 l21 -29 -24 -20 c-46 -38 -215 -119 -299 -144 -229 -66 -458 -54
-679 35 -95 38 -214 109 -218 131 -5 25 143 168 223 216 177 105 371 132 573
81z"/>
<path d="M1590 1800 c-33 -15 -112 -88 -302 -283 l-256 -262 -85 82 c-99 97
-148 123 -232 123 -77 0 -129 -24 -181 -83 -68 -77 -82 -172 -40 -262 17 -38
67 -93 207 -229 101 -98 202 -187 224 -199 53 -27 154 -29 210 -3 27 13 159
139 398 380 406 409 413 419 404 533 -6 83 -44 146 -111 188 -65 40 -167 46
-236 15z m165 -165 c18 -17 25 -35 25 -61 0 -36 -16 -53 -352 -390 -241 -243
-360 -355 -379 -359 -16 -4 -39 0 -56 9 -15 8 -103 90 -195 183 -148 149 -168
173 -168 202 0 45 38 81 86 81 32 0 47 -10 123 -82 157 -150 158 -151 191
-151 28 0 67 35 328 296 285 284 299 297 335 297 27 0 45 -7 62 -25z"/>
</g>
</svg>
