<?xml version="1.0" standalone="no"?>
<!DOCTYPE svg PUBLIC "-//W3C//DTD SVG 20010904//EN"
 "http://www.w3.org/TR/2001/REC-SVG-20010904/DTD/svg10.dtd">
<svg version="1.0" xmlns="http://www.w3.org/2000/svg"
 width="512.000000pt" height="512.000000pt" viewBox="0 0 512.000000 512.000000"
 preserveAspectRatio="xMidYMid meet">

<g transform="translate(0.000000,512.000000) scale(0.100000,-0.100000)"
fill="#fff" stroke="none">
<path d="M873 5110 c-128 -27 -220 -142 -231 -291 -12 -178 113 -364 352 -521
48 -32 98 -58 110 -58 43 0 214 119 303 212 152 159 200 338 131 490 -51 110
-141 170 -258 172 -56 0 -75 -5 -120 -30 l-53 -30 -51 27 c-58 31 -122 41
-183 29z m141 -139 c13 -13 29 -42 35 -67 9 -33 17 -45 35 -50 43 -11 64 4 78
54 28 98 145 123 227 49 57 -53 77 -166 46 -258 -31 -91 -141 -209 -285 -307
l-44 -30 -72 50 c-170 117 -274 261 -274 380 0 92 38 164 105 194 43 20 120
12 149 -15z"/>
<path d="M1970 4666 c-155 -33 -283 -182 -310 -362 -26 -168 41 -387 187 -614
74 -114 99 -140 137 -140 61 0 213 32 313 65 295 98 449 239 493 451 35 166
-50 340 -198 407 -50 23 -158 29 -219 14 -30 -8 -34 -6 -43 17 -17 46 -88 112
-148 139 -71 31 -141 39 -212 23z m187 -143 c60 -37 86 -84 78 -138 -11 -64
-8 -88 12 -102 31 -23 65 -12 95 33 35 52 72 68 143 62 75 -6 131 -45 168
-118 26 -49 28 -63 24 -130 -5 -98 -34 -158 -112 -236 -98 -96 -288 -180 -492
-215 -67 -12 -67 -12 -89 16 -78 98 -174 302 -200 428 -39 181 24 343 159 412
68 35 147 31 214 -12z"/>
<path d="M569 3843 c-114 -82 -469 -367 -473 -381 -3 -9 -23 -101 -45 -204
l-40 -187 57 -161 c37 -105 63 -165 75 -172 10 -5 104 -20 209 -33 104 -13
192 -26 194 -28 3 -3 -18 -40 -46 -83 -66 -100 -128 -231 -173 -360 -216 -621
-50 -1304 427 -1762 247 -237 541 -386 881 -448 137 -25 432 -25 564 -1 134
25 256 61 368 109 53 23 102 41 108 41 6 0 54 -18 106 -40 369 -158 794 -175
1179 -47 718 239 1191 921 1157 1669 -21 444 -185 814 -502 1130 -287 286
-652 453 -1058 484 -259 20 -528 -23 -757 -119 -41 -18 -87 -37 -102 -43 -22
-9 -37 -5 -105 25 -97 44 -211 81 -345 110 -90 20 -131 22 -333 22 -200 0
-243 -3 -329 -22 -81 -18 -247 -69 -317 -96 -14 -6 -13 15 8 181 13 103 21
198 18 209 -3 14 -56 55 -151 118 l-146 96 -82 0 c-46 0 -136 3 -202 6 -105 5
-122 3 -145 -13z m336 -115 c4 -4 -5 -64 -20 -135 -20 -93 -33 -134 -49 -150
-11 -12 -108 -90 -215 -173 l-195 -151 -140 7 c-78 3 -141 7 -142 8 -1 0 13
63 30 140 l31 138 210 165 210 164 137 -3 c75 -2 140 -6 143 -10z m201 -89
c68 -45 75 -53 70 -77 -2 -15 -19 -148 -37 -297 -18 -148 -35 -273 -38 -277
-4 -4 -35 91 -70 212 l-64 220 28 135 c16 74 30 135 32 135 2 0 38 -23 79 -51z
m-156 -578 c39 -134 70 -247 68 -252 -2 -5 -105 51 -231 124 -125 72 -226 135
-225 139 5 14 313 249 315 241 1 -4 34 -118 73 -252z m1128 188 c353 -39 667
-183 920 -424 334 -318 509 -748 489 -1200 -8 -166 -28 -281 -77 -426 -180
-541 -609 -924 -1177 -1051 -84 -19 -129 -22 -313 -22 -184 0 -229 3 -313 22
-568 127 -996 509 -1177 1051 -60 179 -74 275 -74 496 0 209 16 312 75 490 49
148 151 341 244 459 14 19 18 19 241 -9 221 -27 226 -27 245 -9 14 15 23 61
44 229 14 116 28 219 30 230 3 15 29 30 97 57 257 100 496 135 746 107z m1554
-4 c498 -66 927 -357 1173 -795 133 -237 195 -481 195 -767 0 -741 -517 -1377
-1248 -1534 -124 -26 -390 -36 -515 -20 -48 7 -131 23 -185 36 -99 25 -242 75
-241 85 0 3 40 33 89 68 l89 62 88 -25 c143 -42 271 -58 408 -51 309 16 575
130 793 341 245 235 372 535 372 875 0 335 -119 629 -350 860 -182 183 -404
299 -660 346 -59 10 -132 14 -242 12 l-157 -3 -64 74 c-76 88 -182 182 -290
258 -43 31 -75 59 -70 63 4 4 41 20 81 34 241 86 490 113 734 81z m-2994 -359
c111 -66 201 -120 200 -121 -4 -3 -620 73 -622 77 -5 6 -56 156 -56 163 0 4
62 5 138 3 l137 -3 203 -119z m3032 -285 c399 -89 712 -385 826 -780 l26 -91
-26 -92 c-120 -418 -455 -720 -880 -793 -85 -14 -236 -21 -236 -10 0 3 23 51
51 107 66 132 124 305 150 454 25 141 30 402 10 529 -36 229 -122 467 -227
633 -19 29 -34 54 -34 56 0 22 224 13 340 -13z m845 -1297 c-23 -112 -50 -185
-106 -294 -142 -278 -397 -477 -719 -562 -150 -40 -399 -34 -564 13 l-39 11
55 56 c31 32 79 86 107 121 l51 65 142 2 c344 4 644 134 876 379 70 73 183
232 197 276 15 47 15 6 0 -67z"/>
<path d="M1825 2774 c-428 -76 -794 -385 -939 -792 -70 -196 -88 -447 -46
-651 51 -252 172 -467 362 -647 222 -210 481 -318 788 -331 344 -14 667 113
910 357 364 367 460 917 240 1377 -176 369 -505 619 -904 688 -109 19 -304 18
-411 -1z m235 -101 c0 -5 -19 -35 -41 -68 -54 -80 -151 -281 -183 -380 -67
-208 -92 -390 -83 -610 12 -274 87 -542 211 -754 20 -34 34 -66 31 -71 -11
-18 -176 -33 -306 -27 -169 7 -282 36 -437 113 -128 63 -143 79 -210 217 -303
619 49 1376 719 1547 115 29 299 49 299 33z m245 -32 c44 -11 114 -34 155 -51
76 -31 200 -100 200 -110 0 -3 -42 -48 -94 -100 -196 -200 -312 -442 -346
-728 -26 -208 19 -471 111 -654 l28 -56 -44 -27 c-66 -38 -168 -85 -186 -85
-16 0 -88 120 -130 215 -155 359 -175 774 -54 1142 54 165 228 473 267 473 7
0 49 -9 93 -19z m470 -381 c93 -242 99 -517 14 -756 -17 -49 -43 -111 -56
-139 -30 -59 -105 -175 -114 -175 -7 0 -85 100 -121 156 -64 100 -133 271
-144 359 -6 47 28 173 76 280 46 103 135 230 218 314 l74 74 14 -24 c7 -13 25
-53 39 -89z m183 -82 c61 -94 120 -227 149 -336 24 -87 27 -115 27 -272 0
-158 -3 -185 -27 -275 -32 -119 -117 -294 -186 -386 -167 -219 -414 -373 -684
-424 -103 -20 -302 -19 -407 1 -144 27 -316 100 -430 183 -51 37 -51 37 42 11
377 -101 804 0 1103 261 208 181 348 425 401 696 33 167 20 408 -32 581 -11
36 1 26 44 -40z m-506 -971 c17 -23 45 -57 62 -75 l30 -32 -39 -40 c-21 -22
-43 -40 -48 -40 -22 0 -96 210 -112 320 l-7 45 41 -68 c22 -38 55 -88 73 -110z"/>
</g>
</svg>
