<?xml version="1.0" encoding="utf-8" ?>
<svg xmlns="http://www.w3.org/2000/svg" xmlns:xlink="http://www.w3.org/1999/xlink" width="1024" height="1024">
	<path fill="white" d="M0 0L1024 0L1024 1024L0 1024L0 0Z"/>
	<path d="M819.435 144.66Q821.59 144.475 823.752 144.387C833.205 144.053 843.096 146.236 850.05 153.058C854.773 157.691 856.54 162.758 856.677 169.213Q869.864 170.78 882.903 173.291Q895.943 175.802 908.768 179.244C911.608 180.011 914.329 180.569 915.877 183.24C915.982 184.642 915.932 185.542 915.057 186.715C912.021 190.788 833.138 194.645 822.376 195.168C811.35 195.981 800.041 195.895 788.98 195.953C772.149 196.041 754.971 196.067 738.23 194.177C735.298 193.847 728.319 193.284 726.701 190.584C726.042 189.485 726.341 189.027 726.715 187.922C730.794 183.814 746.393 181.257 752.448 180.495C756.088 175.013 759.354 170.309 765.408 167.182C772.8 163.365 783.36 162.777 791.268 165.207C792.538 162.77 793.769 160.234 795.38 158.001C801.197 149.939 809.861 146.135 819.435 144.66Z"/>
	<path fill="white" d="M823.791 151.196C828.078 151.12 832.122 151.194 836.234 152.64C842.637 154.891 846.859 159.166 849.774 165.154C849.562 167.856 848.933 171.274 850.017 173.791C851.412 174.675 852.732 175.131 854.338 175.521C859.133 176.685 864.326 177.001 869.209 177.845Q882.746 180.269 896.193 183.154Q858.051 186.956 819.749 188.438C795.537 189.168 771.4 188.744 747.192 188.956C758.665 186.233 756.538 186.136 762.909 177.436C767.337 171.389 777.453 170.734 784.324 171.396C787.108 171.664 790.8 172.511 793.516 172.036C797.581 171.325 799.787 163.682 802.256 160.671C807.501 154.274 815.893 151.896 823.791 151.196Z"/>
	<path d="M584.177 135.163C588.841 134.579 593.838 135.011 598.388 136.16C619.103 141.392 630.1 159.531 635.633 178.764C636.734 182.59 638.199 190.476 640.447 193.365C641.402 194.592 642.71 194.573 644.152 194.419C647.573 194.053 650.997 192.627 654.279 191.641Q655.743 191.194 657.232 190.836Q658.721 190.479 660.229 190.213Q661.737 189.947 663.259 189.773Q664.78 189.599 666.309 189.519Q667.838 189.438 669.37 189.451Q670.901 189.463 672.428 189.569Q673.956 189.675 675.474 189.874Q676.993 190.072 678.496 190.363C693.874 193.256 703.515 202.224 710.326 215.969C712.595 220.549 714.476 225.718 717.452 229.871C724.139 239.205 738.196 229.585 746.505 227.331C753.046 225.557 760.041 224.958 766.76 225.985C775.367 227.301 782.554 231.854 787.64 238.88C793.621 247.142 794.636 253.852 793.044 263.774C799.846 262.521 806.641 261.739 813.568 261.768C826.128 261.82 840.663 264.411 848.512 275.254C851.746 279.721 853.718 285.018 855.662 290.132C857.278 294.382 858.589 299.386 861.96 302.636C871.928 312.249 891.926 304.433 903.786 304.111C920.447 303.658 923.668 314.425 933.946 324.003L934.442 324.458C942.406 324.794 950.022 325.072 956.832 329.831C961.169 332.861 963.836 338.213 964.686 343.329C965.615 348.918 963.592 355.424 960.172 359.913C947.079 377.1 919.768 364.97 902.099 367.538C880.02 370.748 885.863 388.064 875.302 401.768C860.388 421.118 822.265 422.189 799.58 425.233C792.987 431.786 787.705 439.903 781.466 446.88C781.541 457.902 782.228 468.997 782.539 480.023C782.893 492.539 782.779 505.406 784.349 517.82C791.657 516.963 808.736 511.122 814.735 513.633C817.621 514.84 819.783 522.885 820.912 525.823C824.315 523.791 828.351 521.211 832.373 520.903C834.08 520.771 834.887 521.159 836.167 522.241C837.122 524.346 836.809 526.207 836.985 528.451C846.943 529.093 856.755 530.789 866.766 530.762C875.689 530.738 884.824 529.017 893.697 529.721C896.43 532.382 899.302 535.194 903.041 536.333C908.035 537.855 923.722 538.639 930.132 539.54C938.582 540.727 947.194 542.722 955.176 545.749C960.629 547.818 965.895 550.403 971.401 552.33C975.552 553.784 980.738 554.346 984.592 556.362Q984.78 556.459 984.956 556.578Q985.131 556.696 985.292 556.834Q985.453 556.972 985.596 557.128Q985.74 557.284 985.864 557.455Q985.989 557.626 986.093 557.811Q986.197 557.996 986.278 558.191Q986.36 558.387 986.418 558.59Q986.477 558.794 986.511 559.003C986.758 560.453 986.46 561.33 985.765 562.573C984.532 563.57 983.607 563.935 982 564.063C971.075 564.93 959.009 560.22 948.428 557.856C935.927 555.064 923.214 552.415 910.497 550.826C905.92 550.254 887.088 548.82 884.605 546.892C884.451 546.773 884.303 546.646 884.158 546.517C882.604 545.128 882.81 542.889 882.728 540.97C869.63 540.611 828.616 538.979 818.046 534.592C814.156 532.978 812.58 527.609 811.077 524.061C802.262 524.964 793.585 526.018 784.95 528.077C785.407 533.883 788.157 559.782 786.645 564.162C786.273 565.239 785.593 565.866 784.513 566.272C783.346 566.711 782.398 566.385 781.343 565.886C780.312 564.922 780.069 564.115 779.871 562.765C778.769 555.263 778.677 547.218 778.077 539.632C776.189 515.754 775.13 492.165 774.652 468.221C774.52 461.58 773.36 451.677 774.746 445.39C775.385 442.491 777.55 440.068 779.33 437.786C778.495 436.903 777.435 435.893 777.029 434.724C775.552 430.469 784.06 419.753 786.266 416.155C782.092 415.631 778.067 415.499 773.86 415.511C772.922 417.675 771.868 419.849 771.631 422.217C771.375 424.773 770.975 427.793 769.649 430.025C763.735 430.771 740.531 400.89 733.217 400.146L732.956 400.696C733.905 406.472 760.051 432.411 765.178 439.966C765.3 440.145 765.418 440.327 765.537 440.507C765.213 450.7 765.852 460.931 765.474 471.135C765.208 478.299 758.952 561.638 758.887 561.771C758.27 563.033 757.925 563.148 756.718 563.715C755.234 563.626 755.028 563.628 753.836 562.763C751.097 557.635 754.421 532.221 754.498 524.613C746.016 524.032 737.744 524.696 729.273 524.994C710.575 525.652 694.179 522.862 676.592 516.466C678.792 523.905 680.197 531.696 681.806 539.281Q686.147 559.762 690.121 580.317L694.918 604.408C695.702 608.365 696.803 612.51 697.131 616.532C697.193 617.294 697.087 617.767 696.761 618.451C693.98 621.385 689.948 622.239 686.217 623.466C685.979 646.146 691.515 695.824 676.348 712.686C672.312 717.173 666.855 719.768 660.822 719.986C647.571 720.464 636.567 711.737 627.408 703.192C627.507 716.368 627.985 729.569 627.801 742.742C627.645 753.942 626.002 772.16 627.868 782.382C628.97 788.418 631.454 794.261 633.49 800.031C636.831 809.5 640.219 819.005 643.274 828.569Q647.963 843.248 651.814 858.169Q655.664 873.089 658.663 888.204Q661.661 903.319 663.799 918.58Q665.936 933.841 667.206 949.198C667.615 954.765 668.795 961.503 668.384 966.989C668.274 968.45 667.777 969.024 666.777 970.013C665.408 970.43 664.732 970.518 663.274 970.262C662.388 969.57 661.967 969.331 661.628 968.203C660.393 964.092 659.322 943.797 658.669 937.65C654.293 896.453 645.066 849.365 629.076 811.067C623.962 811.919 618.884 813.567 613.818 814.724Q601.362 817.442 588.765 819.406Q580.433 820.64 572.065 821.604Q563.697 822.567 555.303 823.26Q546.908 823.953 538.495 824.375Q530.083 824.796 521.661 824.945Q513.239 825.094 504.817 824.972Q496.395 824.849 487.981 824.454Q479.567 824.059 471.171 823.392Q462.774 822.726 454.403 821.788C435.534 819.75 417.127 815.26 398.327 813.148C386.869 847.71 378.226 882.064 373.467 918.215C372.542 925.245 369.87 966.439 369.339 967.558C368.835 968.621 368.139 969.19 366.976 969.441C365.703 969.715 364.785 969.252 363.727 968.633C361.163 965.108 364.741 932.088 365.361 926.063C369.083 891.328 377.023 857.007 387.011 823.58C389.529 815.155 392.679 806.9 395.678 798.636C397.293 794.188 399.663 789.216 400.255 784.524C401.282 776.382 399.01 764.903 398.216 756.47Q395.805 731.888 394.211 707.239C388.027 720.427 381.852 734.611 368.928 742.525C362.102 746.704 353.755 749.06 345.813 747.021C339.226 745.33 334.284 740.676 330.992 734.87C326.705 727.31 325.19 718.285 324.33 709.751C321.578 682.451 326.702 656.562 333.739 630.309C330.891 628.987 325.813 626.497 324.222 623.747C323.297 622.149 323.526 620.719 323.721 618.966C325.176 605.882 329.337 592.324 332.365 579.481C337.081 559.481 341.345 539.189 347.161 519.479C335.774 520.814 324.544 524.794 313.187 525.539C308.675 525.834 307.249 523.55 303.969 521.228C301.68 519.607 267.548 527.155 262.581 528.339C263.125 534.234 263.733 540.149 264.74 545.986C265.499 550.386 266.878 555.031 267.191 559.464C267.3 561.004 267.298 561.32 266.594 562.703C265.351 563.565 264.733 563.784 263.222 563.859C262.453 563.48 262.059 563.419 261.562 562.687C260.264 560.775 259.824 557.053 259.354 554.797C254.471 531.36 252.173 473.194 255.813 450.448C257.345 449.068 258.916 447.717 260.414 446.3C274.343 433.122 296.117 386.239 296.597 367.249C293.234 374.474 290.615 382.095 287.648 389.493C281.768 404.155 275.216 418.676 266.636 431.973C265.09 434.369 262.89 437.225 259.842 437.63C258.509 437.807 257.97 437.5 256.917 436.746C255.434 433.551 255.838 429.635 255.884 426.183C256.058 413.225 257.869 400.764 259.719 387.973C260.676 381.363 262.199 374.229 262.167 367.55C262.154 364.729 262.279 358.759 260.205 356.702L259.432 356.934C258.625 360.081 256.76 362.997 256.173 366.16C255.353 370.58 255.279 375.203 254.673 379.667C254.239 382.869 253.399 386.02 252.884 389.216C251.644 396.906 249.356 420.532 243.664 425.085C242.543 425.981 241.559 426.306 240.122 426.185C232.4 425.54 219.414 399.981 215.822 392.796C214.015 389.181 212.57 384.059 209.813 381.112C209.526 383.31 223.476 415.352 225.37 419.132C227.678 423.739 230.467 428.472 233.387 432.726C236.282 436.942 241.737 440.53 243.565 445.302C244.457 447.634 244.463 450.483 244.422 452.963C244.249 463.187 238.84 558.542 236.755 561.892C236.049 563.027 235.471 563.066 234.276 563.347C233.241 563.123 232.68 563.031 231.88 562.278C229.766 560.285 232.641 536.486 232.734 532.219C219.79 534.939 217.291 531.542 206.221 531.587C198.73 531.617 191.223 534.227 183.995 535.958C178.837 537.194 166.327 540.075 161.354 538.831C160.299 538.567 159.273 537.892 158.351 537.329C141.892 541.371 115.158 551.901 99.7715 551.583C98.7785 549.68 97.9531 548.044 95.8325 547.2C91.5999 545.516 87.0761 550.434 83.4734 552.001C79.2363 553.843 74.4188 554.574 70.0657 556.244C65.7555 557.898 62.0414 560.463 57.8658 562.298C56.3984 562.943 55.3686 563.013 53.8563 562.385C52.8096 561.399 51.8763 560.217 51.683 558.726C51.5022 557.331 51.7173 556.709 52.554 555.603C54.0371 553.643 57.254 552.127 59.3407 550.855C70.7249 543.91 82.5157 538.296 95.7478 536.024L100.402 538.001C111.382 536.425 115.838 533.323 125.176 527.846C126.494 529.17 127.473 530.714 128.518 532.254C127.016 533.489 125.466 534.569 124.564 536.336L124.902 537.148C129.753 537.815 149.276 523.724 156.017 521.294C157.513 520.754 159.078 520.046 160.574 520.86C163.339 522.364 166.494 525.599 167.604 528.555C173.794 527.713 180.034 526.792 186.042 525.036C194.527 522.557 202.551 518.954 211.416 517.998C217.784 522.191 225.799 522.244 233.178 522.011Q235.177 499.315 236.245 476.556C236.762 467.147 237.492 457.689 237.48 448.264C235.043 445.186 232.363 442.371 230.047 439.18C225.842 433.389 222.455 427.059 218.97 420.823C215.596 422.709 212.199 424.692 208.64 426.209C200.072 429.86 188.614 431.333 180.183 426.587C176.956 424.77 173.349 421.667 169.589 421.155C158.775 419.682 150.03 426.086 138.123 420.993C134.397 419.399 131.371 416.722 128.836 413.607C114.647 396.179 135.551 377.763 129.377 363.39C127.896 359.942 124.904 356.989 121.329 355.786C116.344 354.11 110.294 354.978 105.102 355.118C94.7584 355.398 82.6523 355.003 73.0046 350.848C66.5177 348.054 61.549 343.154 58.9941 336.518C55.2911 326.898 56.7836 315.671 60.865 306.424C66.9099 292.73 80.221 283.803 95.4702 285.967C102.496 286.964 109.661 290.229 116.834 288.955C126.703 287.201 135.348 279.261 144.765 275.649C158.527 270.37 170.214 273.903 183.073 279.71C182.909 277.78 182.75 275.845 182.757 273.907C182.791 265.095 185.899 256.866 192.294 250.68C210.002 233.552 229.826 249.728 246.107 242.121C257.365 236.862 263.239 222.81 277.397 223.278C298.412 223.973 295.458 253.085 306.51 263.902C310.93 268.228 315.817 268.884 321.689 268.709C324.94 261.287 331.162 255.37 338.205 251.504C349.468 245.321 361.492 246.19 373.4 249.718C375.833 242.168 378.44 235.076 385.461 230.498C394.835 224.385 405.242 226.736 415.389 228.757C416.635 221.101 416.837 214.252 422.059 207.878C427.622 201.087 435.723 199.559 444.024 200.782C446.839 201.197 450.021 202.026 452.869 201.68C455.43 201.368 457.063 199.862 457.687 197.38C458.481 194.226 457.831 189.95 457.715 186.716C457.313 175.539 460.215 164.759 467.03 155.78C473.959 146.65 484.52 138.912 496.091 137.41C508.72 135.771 516.943 140.768 523.372 151.428C525.083 154.266 526.617 157.366 529.372 159.354C537.382 165.133 546.837 155.004 552.602 150.26C555.676 147.731 558.836 145.372 562.221 143.271C569.09 139.009 576.179 136.302 584.177 135.163Z"/>
	<path fill="white" d="M304.437 365.157C304.706 365.254 304.99 365.32 305.246 365.449C305.865 365.762 306.299 366.125 306.46 366.803C307.257 370.172 304.178 374.333 302.481 377.079L302.134 377.28L301.647 377.105C301.949 373.251 302.865 368.701 304.437 365.157Z"/>
	<path fill="white" d="M267.893 361.744C268.31 361.693 268.725 361.638 269.143 361.601C270.253 361.503 271.577 361.295 272.44 362.019C271.686 368.132 269.478 374.137 268.271 380.194C266.807 387.538 266.088 395.052 264.891 402.448L264.412 403.838C263.468 400.694 267.578 377.272 267.997 372.068C268.277 368.595 268.161 365.213 267.893 361.744Z"/>
	<path fill="white" d="M410.403 400.544L410.521 400.571C411.381 401.979 411.037 404.814 411.083 406.512Q403.857 407.326 396.667 408.413C396.648 407.075 396.731 406.481 397.674 405.467C400.53 402.396 406.324 400.847 410.403 400.544Z"/>
	<path fill="white" d="M417.377 399.471C422.453 401.033 427.819 404.956 432.243 407.919C434.245 409.26 436.073 410.161 436.567 412.647C435.378 412.655 434.565 412.072 433.512 411.591C428.392 409.255 423.064 407.722 417.565 406.592L417.377 399.471Z"/>
	<path fill="white" d="M515.884 398.504C516.041 398.508 516.198 398.51 516.355 398.516C523.758 398.827 531.873 403.805 536.784 409.188C531.718 408.774 526.766 408.528 521.679 408.567C519.882 405.214 517.094 402.115 515.884 398.504Z"/>
	<path fill="white" d="M813.14 391.321L813.74 392.225C812.63 395.794 789.121 427.724 785.319 432.098L784.841 431.627C785.782 428.585 788.339 425.596 790.043 422.874C792.781 418.501 795.11 413.852 797.942 409.548C801.644 403.924 808.324 396.067 813.14 391.321Z"/>
	<path fill="white" d="M801.157 383.774C802.424 384.976 803.563 386.37 804.736 387.666C800.123 395.564 794.987 402.549 789.331 409.733L785.895 408.943L786.075 408.573C785.872 406.651 799.203 386.688 801.157 383.774Z"/>
	<path fill="white" d="M620.4 785.957C623.592 791.248 625.258 798.609 627.146 804.489L619.842 806.357L618.042 806.407C616.056 804.542 614.126 791.771 613.268 788.194L620.4 785.957Z"/>
	<path fill="white" d="M589.428 368.624C591.339 368.395 593.693 367.904 595.484 368.835C597.102 369.677 597.966 371.31 598.31 373.032C599.454 378.76 595.851 385.836 592.681 390.388C591.809 391.195 590.698 391.731 589.531 391.978C588.341 392.23 587.784 392.157 586.801 391.484C587.031 388.82 587.943 370.602 588.283 369.816C588.502 369.31 589.047 369.021 589.428 368.624Z"/>
	<path fill="white" d="M407.789 786.769C411.057 787.496 414.279 788.485 417.501 789.398C416.563 792.653 414.533 806.186 412.841 807.866C409.228 807.247 405.691 806.485 402.131 805.612C403.287 799.19 405.629 792.912 407.789 786.769Z"/>
	<path fill="white" d="M533.754 455.7C535.015 455.536 536.221 455.201 537.392 455.833C538.32 457.258 537.728 459.909 537.596 461.559C530.655 466.717 521.022 466.183 512.798 466.128L506.34 465.933C510.171 462.879 513.777 459.608 517.398 456.312C522.894 456.681 528.288 456.211 533.754 455.7Z"/>
	<path fill="white" d="M429.45 458.445C435.468 458.673 441.724 458.568 447.671 459.529C450.685 462.234 453.693 464.643 457.264 466.573C452.486 466.875 447.708 466.846 442.923 466.85Q428.762 466.554 414.599 466.638C419.345 463.637 424.504 461.113 429.45 458.445Z"/>
	<path fill="white" d="M604.291 789.673L605.461 789.588C608.061 792.043 609.818 804.016 610.65 808.115C606.395 809.271 602.14 810.132 597.81 810.935C596.691 811.145 595.676 811.217 594.538 811.224C592.709 808.144 591.444 796.137 590.75 791.913Q597.533 790.868 604.291 789.673Z"/>
	<path fill="white" d="M423.921 790.448C429.507 791.296 435.133 792.024 440.629 793.353C439.033 799.689 438.008 806.288 436.741 812.706Q428.16 810.771 419.529 809.078C421.652 802.943 422.857 796.83 423.921 790.448Z"/>
	<path fill="white" d="M784.869 374.181C786.941 373.926 790.721 373.944 792.579 375.037C793.63 375.656 794.255 376.606 794.375 377.832C794.855 382.713 785.111 395.091 782.042 399.628C780.652 401.428 779.073 403.062 777.527 404.728C776.564 399.708 775.267 380.033 777.938 376.078C779.055 374.424 783.048 374.382 784.869 374.181Z"/>
	<path fill="white" d="M447.243 794.005C452.586 794.729 458.046 795.038 463.423 795.466C462.995 799.14 462.947 813.964 460.99 815.682C455.224 814.986 449.436 814.381 443.726 813.308C445.099 806.921 446.12 800.441 447.243 794.005Z"/>
	<path fill="white" d="M582.365 793.222L583.011 793.23C585.155 796.038 586.475 808.357 587.166 812.337C582.594 813.349 577.867 813.859 573.233 814.528C571.781 814.592 570.704 814.577 569.272 814.231C567.565 809.187 567.905 800.763 567.37 795.193C572.326 794.274 577.355 793.752 582.365 793.222Z"/>
	<path fill="white" d="M495.576 797.109L512.079 797.483C511.752 804.299 512.262 811.149 511.832 817.948L494.791 817.72C494.902 811.215 494.187 803.405 495.576 797.109Z"/>
	<path fill="white" d="M552.837 796.292C555.359 796.086 557.905 796.025 560.433 795.903C561.692 802.245 562.183 808.945 562.64 815.39C559.278 815.574 555.898 816.064 552.55 816.441C549.885 816.581 547.204 816.876 544.543 817.096C544.487 810.292 544.097 803.47 543.825 796.671Q548.33 796.457 552.837 796.292Z"/>
	<path fill="white" d="M230.224 369.855C230.869 373.113 230.908 376.761 231.364 380.086C232.954 391.662 236.485 399.644 242.837 409.287C242.43 412.086 242.41 415.862 240.488 418.045C238.981 418.2 238.661 417.561 237.496 416.653C232.507 410.951 225.986 401.174 223.128 394.164C224.281 385.655 226.722 377.675 230.224 369.855Z"/>
	<path fill="white" d="M528.199 797.279C531.126 797.096 534.07 797.032 537.001 796.918L538.119 817.205L526.375 817.551L518.791 817.943C518.443 811.11 518.566 804.204 518.508 797.359L528.199 797.279Z"/>
	<path fill="white" d="M768.959 379.989C769.216 380.36 769.328 380.465 769.449 380.964C770 383.222 769.606 386.752 769.552 389.164C769.321 399.504 769.038 408.956 764.246 418.34C761.742 415.512 758.989 412.872 756.336 410.183C753.595 407.374 750.679 404.728 747.812 402.047C758.855 397.578 760.654 387.117 768.959 379.989Z"/>
	<path fill="white" d="M252.339 356.002L252.614 356.362C253.059 358.757 245.319 396.473 244.402 401.453L242.488 397.74C241.686 396.037 241.079 394.208 240.521 392.41C238.988 387.47 234.966 368.49 238.056 364.46C240.17 361.704 249.017 356.807 252.339 356.002Z"/>
	<path fill="white" d="M470.16 795.896C476.287 796.103 482.426 796.58 488.543 796.984C487.918 803.814 488.323 810.715 487.816 817.559C481.483 817.531 475.068 817.032 468.765 816.428Q469.273 806.149 470.16 795.896Z"/>
	<path fill="white" d="M452.994 385.413C452.639 387.376 452.591 389.346 452.499 391.334C447.651 396.001 443.921 400.697 440.202 406.306L435.253 402.89C430.729 399.676 426.288 396.205 421.125 394.087C423.676 391.534 425.336 389.297 426.74 385.947C431.803 385.779 436.89 385.834 441.957 385.796C445.615 385.502 449.323 385.507 452.994 385.413Z"/>
	<path fill="white" d="M286.191 353.431C287.645 353.69 289.015 354.07 290.287 354.856C291.483 355.596 292.338 356.694 292.596 358.103C293.52 363.152 272.404 408.52 268.884 415.393C267.579 417.941 266.003 420.346 264.41 422.722L261.499 427.127C262.415 421.943 262.706 416.639 263.145 411.396C263.772 411.153 264.392 410.916 264.996 410.618C267.903 409.183 269.267 406.597 270.339 403.645C271.777 399.686 272.139 395.103 272.865 390.958C274.526 381.476 276.242 369.99 279.609 361.012C281.032 357.217 282.458 355.037 286.191 353.431Z"/>
	<path fill="white" d="M372.064 497.894C372.604 498.251 372.294 497.982 372.788 498.893C370.831 509.435 367.473 519.72 364.507 530.008C358.674 550.236 352.463 570.209 346.039 590.252Q342.964 599.932 340.046 609.661C339.055 613.064 338.452 616.816 337.109 620.085C336.77 620.911 336.438 621.63 335.696 622.169C335.066 622.627 334.192 622.146 333.496 621.981L330.999 620.479C330.847 620.146 330.595 619.843 330.542 619.48C330.18 617.004 341.424 571.27 342.957 564.655C346.664 548.665 351.36 523.209 359.988 509.759Q361.148 507.966 362.498 506.311Q363.847 504.656 365.371 503.159Q366.894 501.663 368.572 500.342Q370.251 499.022 372.064 497.894Z"/>
	<path fill="white" d="M498.456 471.692C508.397 472.41 517.934 472.784 527.87 471.502C529.734 474.563 531.847 477.495 534.302 480.108C532.619 487.684 531.221 495.829 526.015 501.905Q525.443 502.572 524.839 503.211Q524.235 503.85 523.601 504.459Q522.967 505.067 522.304 505.644Q521.641 506.221 520.951 506.766Q520.261 507.31 519.545 507.82Q518.829 508.33 518.089 508.804Q517.349 509.279 516.587 509.717Q515.825 510.155 515.042 510.555Q514.26 510.955 513.459 511.317Q512.658 511.679 511.84 512.001Q511.022 512.324 510.19 512.606Q509.358 512.889 508.513 513.13Q507.667 513.372 506.811 513.572Q505.956 513.772 505.091 513.93Q504.226 514.088 503.355 514.204Q502.484 514.32 501.608 514.394C496.085 513.985 491.328 512.843 486.62 509.83C474.606 502.141 469.005 484.856 466.054 471.738C477.566 474.916 486.921 473.345 498.456 471.692Z"/>
	<path fill="white" d="M647.846 495.667C650.192 496.629 652.47 497.939 654.54 499.405C660.623 503.713 665.004 509.231 668.128 515.972C674.052 528.752 676.177 545.807 679.02 559.612Q682.808 578.096 686.269 596.643C687.441 602.628 688.911 608.55 689.934 614.563C682.627 617.665 675.358 620.192 667.704 622.285L658.972 624.155C654.029 614.813 649.774 605.025 645.291 595.449Q636.779 577.265 627.837 559.288C641.985 541.049 646.858 518.281 647.846 495.667Z"/>
	<path fill="white" d="M476.017 389.167C484.668 387.984 494.456 390.257 501.916 394.711C510.568 399.878 516.307 407.977 518.655 417.734Q518.904 418.742 519.102 419.761Q519.301 420.78 519.449 421.807Q519.597 422.834 519.694 423.868Q519.792 424.901 519.838 425.938Q519.884 426.976 519.878 428.014Q519.873 429.052 519.817 430.088Q519.76 431.125 519.652 432.157Q519.545 433.19 519.386 434.215Q519.228 435.241 519.019 436.258Q518.81 437.275 518.551 438.28Q518.292 439.285 517.984 440.277Q517.676 441.268 517.319 442.243Q516.962 443.218 516.558 444.174Q516.153 445.13 515.702 446.064Q515.251 446.999 514.754 447.911Q514.257 448.822 513.716 449.708C507.165 460.26 498.084 464.306 486.408 467.024C476.047 468.586 465.768 466.226 457.295 459.983C449 453.872 443.375 443.794 441.847 433.675C440.186 422.668 442.771 411.811 449.5 402.906C455.964 394.352 465.711 390.675 476.017 389.167Z"/>
	<path d="M476.501 393.676C484.106 392.562 492.715 394.295 499.267 398.303C507.231 403.173 512.556 411.285 514.644 420.312Q514.85 421.168 515.013 422.034Q515.176 422.899 515.295 423.772Q515.415 424.644 515.492 425.522Q515.568 426.399 515.6 427.279Q515.633 428.159 515.622 429.04Q515.611 429.92 515.556 430.799Q515.501 431.678 515.402 432.554Q515.304 433.429 515.162 434.298Q515.02 435.167 514.835 436.028Q514.65 436.889 514.423 437.74Q514.195 438.591 513.926 439.429Q513.656 440.268 513.345 441.092Q513.035 441.916 512.683 442.723Q512.332 443.531 511.941 444.32Q511.55 445.109 511.12 445.878Q510.69 446.647 510.223 447.393C504.365 456.552 495.614 460.438 485.324 462.619C476.639 463.631 467.58 462.395 460.379 457.121C452.513 451.36 447.242 441.652 445.886 432.067C444.587 422.89 447.622 413.279 453.226 405.991C459.303 398.087 466.868 395.011 476.501 393.676Z"/>
	<path fill="white" d="M477.813 412.123C481.36 411.872 484.867 412.099 488.103 413.708Q488.764 414.035 489.388 414.428Q490.012 414.82 490.593 415.273Q491.175 415.727 491.708 416.236Q492.24 416.746 492.719 417.307Q493.197 417.868 493.617 418.474Q494.036 419.081 494.392 419.726Q494.749 420.372 495.038 421.05Q495.327 421.728 495.546 422.432Q495.803 423.216 495.978 424.023Q496.154 424.829 496.247 425.65Q496.341 426.47 496.35 427.295Q496.359 428.121 496.285 428.943Q496.211 429.765 496.053 430.575Q495.896 431.385 495.657 432.175Q495.419 432.966 495.101 433.727Q494.783 434.489 494.39 435.215C492.197 439.169 488.78 441.252 484.553 442.476C480.577 442.66 477.122 442.777 473.464 440.895Q472.763 440.535 472.104 440.103Q471.445 439.672 470.834 439.174Q470.224 438.677 469.668 438.118Q469.113 437.559 468.619 436.946Q468.125 436.332 467.697 435.67Q467.27 435.009 466.914 434.306Q466.557 433.603 466.277 432.867Q465.996 432.131 465.793 431.37C464.693 427.264 465.154 422.618 467.395 418.966C469.821 415.015 473.46 413.196 477.813 412.123Z"/>
	<path fill="white" d="M473.98 317.376C476.566 318.77 479.078 321.328 481.373 323.199C485.909 326.897 490.509 330.64 495.368 333.907C512.268 345.268 533.705 353.62 553.866 356.883C562.316 358.25 570.864 358.572 579.399 359.019C581.924 382.791 580.893 398.317 567.798 418.979C559.81 406.313 554.867 392.349 540.413 385.57C534.668 382.875 519.14 377.598 513.492 381.745C510.864 383.675 510.204 388.247 506.679 389.126C503.947 389.808 500.098 386.804 497.644 385.477C483.522 380.862 472.492 381.866 459.103 387.93Q459.491 385.759 459.965 383.605C461.33 377.43 464.294 371.694 469.845 368.319C474.758 365.333 480.974 364.557 486.508 366.058C494.68 368.273 498.501 374.045 501.922 381.2C502.652 382.727 503.333 384.706 504.295 386.074C505.057 387.157 505.856 387.397 507.087 387.692C508.19 387.376 508.793 387.201 509.381 386.075C509.965 384.958 509.972 383.165 509.457 382.016C506.303 374.97 499.508 364.623 492.271 361.609C485.492 358.787 475.905 358.51 469.203 361.541C461.521 365.016 457.736 372.241 454.826 379.674C452.525 379.836 450.243 380.153 447.955 380.443C447.519 374.842 447.012 368.779 447.259 363.171C447.844 349.838 464.301 326.449 473.98 317.376Z"/>
	<path d="M473.83 346.144C477.31 345.972 481.294 345.499 484.677 346.479C486.563 347.026 487.92 347.771 488.916 349.507C488.875 350.923 488.854 350.864 487.879 351.903C486.264 352.467 485.243 352.479 483.552 352.286C478.866 351.645 473.405 353.317 468.995 352.198C467.727 351.876 467.388 351.492 466.74 350.402C466.85 349.448 466.954 349.092 467.54 348.284C468.832 346.503 471.808 346.447 473.83 346.144Z"/>
	<path d="M537.997 362.526C539.187 362.457 540.555 362.382 541.723 362.687C543.631 363.186 545.5 364.539 546.505 366.238C547.513 367.944 547.689 369.964 547.187 371.866C546.41 374.81 544.465 376.401 541.96 377.91C541.102 377.954 540.259 377.95 539.406 377.834C537.203 377.535 535.131 376.334 533.885 374.471C532.653 372.629 532.418 370.4 532.99 368.282C533.748 365.472 535.606 363.968 537.997 362.526Z"/>
	<path fill="white" d="M740.394 444.71C746.489 444.748 752.518 444.96 758.536 445.99C758.518 466.943 758.475 488.467 755.067 509.191C751.121 509.79 747.274 511.078 743.363 511.898C733.24 514.021 720.681 515.681 710.44 513.898C703.937 512.765 698.142 509.307 691.493 508.575C687.011 508.082 674.06 508.164 671.044 506.666C664.647 497.992 657.586 492.175 647.688 487.9C647.188 479.116 645.521 470.639 643.348 462.136C657.638 462.313 671.053 461.142 684.93 457.562C695.114 454.935 704.891 450.946 715.062 448.284C723.445 446.091 731.778 445.219 740.394 444.71Z"/>
	<path fill="white" d="M281.006 428.66C283.973 429.846 286.933 431.099 289.943 432.17C307.208 438.308 325.193 437.793 341.692 429.991C347.043 430.62 352.336 431.763 357.687 432.418C363.069 433.077 368.509 433.164 373.924 433.302C373.993 451.806 376.799 470.825 374.82 489.217C364.68 493.547 358.337 500.002 352.438 509.249L347.376 503.768C347.215 503.692 347.058 503.606 346.893 503.538C345.463 502.951 343.76 503.417 342.282 503.625C329.75 505.382 324.522 511.861 313.6 516.578C312.36 514.479 311.252 510.995 309.223 509.664C303.107 505.651 271.102 513.995 262.531 515.761C260.333 495.631 260.332 474.136 262.397 454.014C269.886 447.457 276.389 437.481 281.006 428.66Z"/>
	<path fill="white" d="M518.15 386.407C522.247 386.809 526.332 387.36 530.301 388.484C547.071 393.233 552.332 405.279 560.53 419.227C563.49 424.265 567.086 428.982 569.754 434.182C572.8 440.121 573.4 447.687 574.814 454.162C576.865 463.546 579.326 473.584 582.974 482.469C585.802 489.355 589.91 495.911 593.115 502.658L626.399 571.778L656.612 635.27C660.206 642.816 662.728 651.445 666.941 658.602C668.071 660.521 669.167 662.187 671.419 662.763C672.509 662.381 673.051 662.304 673.447 661.069C675.029 656.142 664.717 636.638 662.576 630.815C668.275 629.355 673.874 627.768 679.468 625.947C679.426 645.425 683.607 692.542 672.072 707.354C669.361 710.836 665.589 713.284 661.135 713.693C652.797 714.458 644.55 708.57 638.401 703.588C627.931 693.562 620.192 682.451 614.036 669.302C605.173 650.372 600.387 629.392 595.353 609.202Q584.527 563.86 572.256 518.887C569.682 509.71 567.646 499.92 564.457 490.985C562.113 488.971 559.576 487.463 557.571 485.037C547.751 473.157 553.379 457.055 549.207 450.953C545.053 447.883 525.984 450.477 520.044 450.747C521.181 448.169 522.202 445.542 523.25 442.927C527.315 443.196 531.436 443.388 535.476 443.909C539.237 444.395 543.029 445.531 546.826 445.544C548.47 445.549 549.791 445.153 551.293 444.487L551.638 443.551C551.316 442.949 551.286 442.831 550.796 442.249C546.626 437.305 530.984 437.454 524.938 436.94L526.261 429.559C533.682 429.287 540.249 431.36 547.512 431.966C549.284 432.113 549.714 431.686 550.981 430.59C551.471 429.17 551.452 429.17 550.938 427.754C545.774 422.974 532.609 423.514 525.75 423.155C525.741 423.01 525.734 422.865 525.724 422.719L525.664 421.995C525.456 419.191 524.737 416.652 523.979 413.96C528.203 414.235 534.403 414.466 538.354 415.918C541.402 417.038 544.212 419.133 547.338 420C548.706 420.379 549.254 420.201 550.416 419.48C550.905 418.234 551.027 417.195 550.53 415.923C548.063 409.621 535.145 399.924 529 396.842C525.56 395.117 521.676 394.15 518.31 392.36C517.093 391.713 516.841 391.24 516.387 389.973C516.663 388.272 517.02 387.708 518.15 386.407Z"/>
	<path fill="white" d="M413.69 385.567C415.071 385.428 416.769 385.364 418.09 385.805C418.872 386.066 418.621 386.038 418.975 386.932C416.965 391.115 408.557 393.487 404.567 395.184C399.396 397.384 391.977 400.062 389.918 405.769C389.142 407.917 388.636 411.126 389.887 413.192C392.329 417.223 406.707 412.612 410.779 412.276C413.84 412.023 417.186 412.545 420.19 413.136C424.801 414.042 431.873 416.246 434.569 420.248C434.819 421.712 434.756 421.94 434.217 423.332C432.178 423.329 429.655 420.682 427.705 419.831C425.817 419.007 423.321 418.725 421.283 418.572C416.218 418.192 402.306 420.48 398.956 423.737C397.905 424.759 397.459 425.599 397.462 427.05C401.37 430.131 413.174 424.534 418.522 424.424C426.083 424.268 431.32 428.318 436.426 433.324C432.814 433.014 429.308 431.774 425.677 431.492C419.98 431.05 408.402 432.53 403.493 435.539C402.445 436.18 402.065 436.522 401.772 437.752C404.854 441.645 415.129 437.952 419.367 437.485C421.471 437.254 423.66 437.34 425.753 437.641C429.858 438.23 434.097 439.259 436.686 442.697C434.697 443.02 432.038 441.659 429.991 441.376C424.026 440.551 410.299 442.713 405.162 445.376C403.861 446.051 403.629 446.681 403.276 447.982C406.423 452.219 418.867 447.519 423.802 447.185C427.894 446.907 431.535 447.348 435.548 448.131C429.249 451.812 422.969 455.547 416.608 459.121C412.955 461.174 409.134 462.947 405.625 465.243C405.246 478.864 403.001 492.42 402.816 506.006C402.671 516.695 403.053 527.417 403.096 538.11C403.234 572.446 403.33 606.79 400.366 641.023C397.115 667.236 393.529 698.282 379.314 721.199C374.105 729.597 366.412 737.847 356.383 740.03C352.002 740.984 347.346 740.704 343.513 738.207C333.613 731.759 332.174 719.042 331.356 708.315C327.639 659.571 344.875 618.596 358.942 572.995Q366.02 550.147 372.697 527.178C376 515.649 379.443 503.935 381.306 492.065C383.635 477.215 381.992 460.536 381.264 445.513C380.938 438.788 380.928 431.816 380.053 425.146C379.337 419.685 377.581 414.379 376.461 408.985C376.801 408.306 377.139 407.647 377.539 407.001C385.187 394.676 400.349 388.948 413.69 385.567Z"/>
	<path fill="white" d="M752.151 257.573C764.886 256.373 768.292 264.253 777.088 270.248C783.141 274.373 789.416 271.308 795.833 269.986C803.086 268.492 810.834 268.076 818.221 268.463C856.38 270.458 842.194 301.286 861.569 310.876C880.235 320.114 898.399 306.656 911.72 312.032C920.571 315.605 923.038 325.758 930.958 329.811C937.734 333.278 946.063 331.149 952.619 335.708C955.427 337.661 956.92 340.537 957.409 343.878C958.014 348.005 957.27 352.528 954.635 355.86C945.88 366.932 926.692 361.329 915.084 360.24C911.124 359.869 907.016 359.983 903.071 360.458C871.835 364.22 883.026 381.343 869.675 397.873C857.499 412.948 823.818 415.739 805.249 417.722C810.595 408.841 817.095 400.557 823.191 392.178C829.01 390.956 834.942 389.377 840.911 389.221C845.759 389.095 852.929 392.556 857.087 389.954C857.852 388.759 858.039 388.2 858.029 386.779C857.581 385.907 857.504 385.526 856.676 384.935C854.697 383.522 851.845 383.397 849.509 383.095C836.045 381.355 831.094 383.849 818.19 386.642C807.585 383.109 806.846 377.413 799.084 371.249C794.167 367.344 788.546 366.444 782.441 367.319C773.218 368.64 764.43 373.108 758.748 380.569C755.624 385.52 752.015 392.446 746.302 394.712C740.188 397.137 733.816 393.722 728.282 391.285C710.212 392.737 703.955 402.908 689.861 407.965Q687.422 408.825 684.897 409.388Q682.372 409.951 679.798 410.208C677.485 410.424 675.162 410.227 672.941 410.98C672.108 412.407 672.106 412.662 672.139 414.326C672.658 415.167 673.047 415.876 673.943 416.379C676.136 417.61 679.2 417.175 681.579 416.864C701.112 414.309 707.634 402.352 722.988 399.566C732.733 413.556 744.136 425.626 755.228 438.488C736.869 436.799 720.35 438.878 702.829 444.51C693.07 447.646 683.437 451.106 673.357 453.103C662.698 455.215 652.263 455.24 641.464 455.072C637.946 446.147 633.209 438.264 629.101 429.668C621.961 414.725 622.4 397.114 622.405 380.919C625.973 381.117 629.551 381.15 632.793 379.421C645.569 372.61 633.53 353.241 637.826 340.128C639.099 336.241 642.113 332.196 645.912 330.483C651.677 327.885 657.992 331.475 663.32 333.606C666.842 335.015 670.643 336.415 674.328 334.677C680.746 331.65 677.749 318.135 677.929 312.145C678.047 308.21 678.705 304.105 680.06 300.4C680.676 298.714 681.406 297.111 682.452 295.645Q682.981 294.914 683.562 294.224C696.701 278.578 715.525 292.763 730.431 284.093C741.466 277.674 739.523 263.387 752.151 257.573Z"/>
	<path fill="white" d="M587.359 141.714C604.584 141.138 618.382 153.696 624.735 168.875C628.27 177.322 630.478 194.033 637.514 199.49C644.802 205.142 655.548 197.234 663.66 196.31C669.478 195.648 676.047 196.31 681.659 197.989C705.533 205.132 702.929 228.485 714.929 237.489C727.119 246.636 741.473 234.473 753.946 232.709C762.185 231.545 770.661 233.14 777.313 238.357C782.214 242.202 785.956 248.02 786.533 254.313C786.832 257.565 786.088 263.866 783.9 266.373C780.4 265.85 775.591 259.485 772.667 257.097C766.73 252.25 759.555 249.711 751.832 250.623C737.168 252.356 737.645 266.098 730.231 275.109C723.484 283.309 707.129 278.69 697.662 279.57C680.367 281.178 671.803 295.035 671.151 311.211C670.985 315.313 673.133 325.303 670.744 328.199C667.03 328.999 657.317 322.813 651.751 322.581C646.323 322.356 641.096 324.452 637.147 328.149C628.686 336.07 628.726 347.022 630.426 357.515C630.983 360.956 631.872 364.689 631.635 368.183C631.507 370.079 630.915 372.035 629.29 373.186C627.427 374.506 624.926 374.378 622.809 373.917C621.087 371.356 621.729 362.956 621.511 359.578C620.606 345.556 618.392 331.793 613.074 318.702C611.238 314.182 608.773 309.955 606.815 305.493C605.014 301.386 603.631 297.105 601.801 293.004C596.394 280.887 588.107 270.773 578.219 262.058C570.783 256.308 562.817 251.352 554.056 247.883C527.908 237.529 489.75 239.336 464.266 250.482C437.493 262.191 417.906 283.824 407.362 310.981C392.539 304.29 380.767 315.587 368.827 307.376C358.639 300.37 362.369 290.327 360.6 280.105C359.835 275.68 358.152 270.798 354.241 268.216C347.322 263.65 337.456 265.597 329.906 267.101Q331.344 265.548 332.82 264.031C340.26 256.426 350.638 252.317 361.302 253.71C365.208 254.22 369.218 255.689 373.174 255.532C382.22 255.175 381.152 243.688 386.249 238.222C392.982 231.001 402.376 232.846 410.913 234.561C412.814 234.942 415.067 235.631 417.005 235.39C424.593 234.45 421.119 218.975 427.011 212.164C435.293 202.591 443.879 209.516 453.689 208.265C468.001 206.44 463.564 189.297 464.741 179.489C465.624 172.133 468.27 164.789 473.018 159.033C478.932 151.864 489.968 144.233 499.376 143.514C515.702 142.267 514.665 156.546 523.98 164.045C539.268 176.352 556.081 154.498 568.423 147.443C574.545 143.944 580.371 142.33 587.359 141.714Z"/>
	<path fill="white" d="M274.811 230.024C276.941 229.7 278.928 229.803 280.904 230.721C289.459 234.691 291.245 248.756 294.297 256.672C296.4 262.124 299.47 266.959 304.16 270.545C320.026 282.675 336.239 266.849 348.608 272.855C357.572 277.209 353.058 292.848 356.133 301.56C360.036 312.62 370.53 317.741 381.731 317.086C389.509 316.631 397.056 313.662 404.535 317.197L405.115 317.478C402.998 340.039 404.879 367.576 389.856 386.258C384.652 392.729 376.508 396.381 372.127 403.794C368.108 410.595 372.717 419.084 374.415 426.009C363.602 426.863 353.362 425.399 342.907 422.721C340.481 423.611 338.101 424.644 335.687 425.571C318.842 432.039 300.679 430.325 284.36 423.079C289.02 412.616 293.296 402.097 297.437 391.419C297.735 391.471 298.032 391.526 298.33 391.575C312.423 393.867 340.215 396.497 352.213 387.259C353.461 386.299 353.991 385.588 354.158 384.028C352.444 381.77 348.189 382.071 345.786 382.874C342.981 383.81 340.159 385.144 337.271 385.766C327.083 387.962 313.35 386.867 303.125 385.292C307.134 380.726 314.475 372.273 313.856 365.735C313.112 357.873 303.226 361.208 301.176 359.112C299.095 356.985 299.683 353.044 295.616 349.876C292.695 347.6 288.835 346.721 285.2 347.354C280.785 348.122 278.558 350.255 276.11 353.792C272.572 354.387 269.386 354.283 265.844 353.929C265.003 353 264.139 351.994 263.113 351.265C253.603 344.51 242.963 354.768 234.843 358.737C232.944 359.665 231.029 359.927 229.008 360.413C226.491 361.017 225.249 364.141 224.021 366.228C220.851 371.082 219.765 378.295 217.649 383.764C216.792 381.709 215.959 379.131 214.549 377.397C213.255 375.805 210.795 373.858 208.642 373.766C207.389 373.713 206.368 373.974 205.487 374.921C203.346 377.223 203.179 381.09 203.399 384.019C193.359 390.139 183.095 392.353 172.107 387.127C169.89 386.073 167.102 384.314 164.566 384.702C163.37 384.885 162.771 385.321 162.085 386.258C162.083 386.694 162.051 386.91 162.22 387.362C163.288 390.22 167.931 393.42 170.718 394.317C184.898 398.88 193.819 396.907 206.747 390.342Q211.178 402.711 216.669 414.647C208.153 419.873 194.508 425.792 184.857 420.774C179.795 418.142 175.294 414.788 169.438 414.128C165.441 413.678 161.495 414.67 157.592 415.394C151.359 416.549 144.694 417.345 139.215 413.366C136.634 411.491 134.673 408.72 133.303 405.868C126.568 391.845 139.605 379.638 137.435 365.659C136.764 361.342 134.69 357.685 131.69 354.559C129.169 351.933 126.261 349.78 122.726 348.774C118.059 347.445 113.064 348.047 108.287 348.261C97.0218 348.763 81.4145 349.541 71.9965 342.156C67.1392 338.347 64.5459 333.344 63.9351 327.235C63.0745 318.625 66.4922 308.587 71.9015 301.907C87.6267 282.488 103.664 300.343 121.527 294.608C134.15 290.554 144.499 280.205 158.286 279.59C168.889 279.118 179.318 288.432 188.31 287.45C192.129 284.678 189.575 276.738 189.72 272.551Q189.778 271.23 189.966 269.92Q190.155 268.611 190.471 267.327Q190.788 266.043 191.23 264.796Q191.673 263.55 192.236 262.353C202.858 239.809 225.836 253.527 243.024 250.252C256.747 247.637 262.274 234.288 274.811 230.024Z"/>
	<path fill="white" d="M528.477 508.963C529.437 513.507 528.485 519.234 528.898 523.986C530.391 541.176 538.371 558.214 550.099 570.776C553.397 574.308 564.607 585.133 569.504 584.931C570.276 584.899 570.862 584.469 571.308 583.836C573.359 580.92 571.98 576.471 572.077 573.203C572.115 571.929 572.571 571 573.636 570.23C574.763 569.417 575.936 569.425 577.245 569.537C579.036 570.77 579.425 572.451 580.034 574.484C582.138 581.515 583.396 588.861 585.075 596.012C589.834 616.284 594.378 636.829 601.318 656.484C606.045 669.872 611.902 682.299 620.271 693.834Q621.093 736.659 619.638 779.468C567.632 791.514 513.455 792.743 460.379 788.419C442.521 786.286 424.508 784.569 407.124 779.706C405.044 764.079 404.457 748.145 403.041 732.441C401.957 720.427 399.159 700.26 399.84 688.786C400.093 684.532 401.398 680.162 402.252 675.985Q404.447 665.411 405.863 654.704C409.288 627.29 409.987 600.122 409.48 572.526C414.288 575.063 418.795 578.176 423.626 580.707C432.183 585.189 443.716 588.923 453.289 585.658C461.141 582.979 465.225 576.507 468.591 569.434C468.958 572.801 469.26 576.152 468.936 579.535C468.595 583.087 467.242 587.725 467.637 591.219C467.707 591.838 467.991 592.274 468.31 592.79C469.539 593.557 469.779 593.744 471.286 593.396C474.663 592.617 478.146 587.29 479.851 584.457C492.638 563.214 486.573 536.555 481.116 513.999C486.183 516.722 491.053 519.202 496.817 520.02C509.005 521.748 519.122 516.078 528.477 508.963Z"/>
</svg>
